<?xml version="1.0" encoding="UTF-8"?>
<svg id="New_Layer" data-name="New Layer" xmlns="http://www.w3.org/2000/svg" version="1.1" viewBox="0 0 379 373.5">
  <defs>
    <style>
      .cls-1, .cls-2, .cls-3, .cls-4, .cls-5, .cls-6, .cls-7, .cls-8 {
        stroke-width: 0px;
      }

      .cls-1, .cls-8 {
        fill: #333;
      }

      .cls-2, .cls-3 {
        fill: #4f060c;
      }

      .cls-2, .cls-5, .cls-7, .cls-8 {
        fill-rule: evenodd;
      }

      .cls-4, .cls-7 {
        fill: #000;
      }

      .cls-5, .cls-6 {
        fill: #fff;
      }
    </style>
  </defs>
  <rect class="cls-4" x="-404.8" y="1.5" width="383.2" height="373.5"/>
  <g>
    <path class="cls-5" d="M620.6,114.5c-2.1.5-7.2,2.9-10.4,4.9-7,4.4-14.7,10.7-22.7,18.9-2.4,2.5-4.6,4.5-4.8,4.5s-1.9-1.1-3.9-2.3c-4.3-2.9-10.6-6.7-14.8-9-1.8-1-3.3-1.8-3.4-1.9,0,0,.5-1.6,1.4-3.4,1.3-2.7,1.6-3.9,1.7-6.2.2-2.5,0-3-.7-3.8-.5-.5-1.4-.8-2-.8-1.1,0-1.2.1-1.3,1.9-.1,1.2-.9,3.4-2.1,5.7-1.1,2.1-2,3.9-2.1,4s-1.1-.3-2.1-.9c-7-3.6-20.8-8-29-9.4-6.1-1-19-1-24.3,0-12.7,2.5-25.1,9.2-33.7,18.3-7.9,8.3-12.9,18.8-14.5,30.6-.6,4.4-.6,5.1,0,9.7.8,6,2.7,11.8,5.4,16.3,2.1,3.4,6.7,8.7,9.6,10.9.9.7.1-.2-1.8-2.1-5.9-5.8-9.1-11.2-11.1-18.8-1-3.5-1.1-4.8-1.1-10.1s.2-7,.7-9c3.8-16.8,14.8-30.5,30.8-38.3,9.1-4.4,16.3-6.1,26.9-6,11.1,0,20.5,2,32.9,6.9,4.9,1.9,9.4,4,9.9,4.4.2.2-3.7,6.6-7.8,12.7-16.8,25.3-42.5,54.5-62.2,70.9-3.8,3.2-4.3,3.8-4.3,4.9s1.5,3.1,3.4,3.8c1.5.6,4.2.2,13.8-2.1,22.5-5.3,32.7-6.8,47.3-7.1,9-.2,18,.2,18.6.8.1.1-.2.8-.6,1.6-.4.8-.9,2.2-1.1,3.2-.2,1.7-.2,1.9.6,2.1.5.2,1.2,0,1.7-.3.4-.3,4.4-5.1,8.9-10.6,9.4-11.7,12.5-15,14.6-15.6,1.9-.5,11-1.2,20.8-1.5,8.4-.3,14.9.1,21.5,1.3,2,.4,4.5.8,5.6.9l2,.3-4.2,2c-7.8,3.6-15.8,6.1-23.1,7.2-1.9.3-6.4.5-10.1.5-5.6,0-6.2,0-4,.4,3.9.5,13.3,0,18.6-.9,7-1.3,15.7-4.3,24.1-8.6l7.3-3.7,2.8,1.6c18,10.1,35.9,15.5,51.3,15.7,19.2,0,35.8-9.1,39.6-21.9.9-3,.8-7.5-.1-10.5-2-6.5-7.9-11.9-15.6-14.5-3.1-1-3.6-1.1-11.1-1.1-7.6,0-8,0-13.1,1.3-13,3.4-22,7.8-42.9,21-4.2,2.7-8.1,5.1-8.6,5.3-.8.4-1.3.3-4-1.4-8.2-5-21.6-14.6-21.4-15.1,0-.2,3.8-2.9,8.4-5.9,19-12.9,32.5-24.2,38.9-32.9,3.2-4.2,5.7-9.3,5.9-12,.2-2.1.1-2.2-1.4-3.7-1.9-1.9-3.8-2.4-7.2-1.8-8.6,1.5-22.6,10.4-41.7,26.4-4.1,3.4-5.9,4.6-5.9,4s1.6-3.5,3.6-7.6c6.6-13.6,8.2-19.3,6.1-22-1.6-2-4.7-2.8-8.3-1.9h0ZM625.5,116.6c.8,2.5-5.1,18-10.8,28.5-3.2,5.9-8.9,14.4-9.4,14.2-.2,0-3.4-2.4-7.2-5.3-3.7-2.8-8.1-6-9.8-7.2l-3-2.1.8-1.2c1.6-2.3,9.5-10.3,14.1-14.2,7.9-6.8,15.9-11.8,21.2-13.3,2.7-.8,3.7-.6,4,.4ZM671.6,117.8c.8.7.7,3.6-.4,5.8-4,8.5-21.7,24.1-46.3,40.8l-7,4.8-4.4-3.4-4.4-3.3,1.9-2.3c3.5-4,17.1-17.1,22.3-21.4,5.8-4.9,13.8-10.8,19.6-14.8,8.5-5.7,16.2-8.3,18.6-6.3ZM564.6,134.8c3.9,2.3,12.7,7.8,16.3,10.1.2.2-.8,1.8-2.2,3.6-5.9,8-7.7,15.7-4.2,18,2.2,1.5,7.2-.3,12-4.2,3-2.5,6.9-6.8,6.5-7.2s-2.1-.3-3.1.2c-.5.2-2.5,2.1-4.5,4-7,6.8-10.8,8-10.8,3.3s3.9-9.9,7.9-14.8l1-1.2,4.9,3.5c9.2,6.7,15.1,11.3,15,11.8,0,.3-2.9,3.6-6.2,7.4-10.1,11.2-21.4,25.6-29.1,36.7-4,5.9-3.2,5.4-7.6,4.7-4.9-.8-24.5-.8-31.5-.2-12,1.2-23.7,3-35.9,5.5-4,.8-6.7,1.2-6.8.9-.1-.2,1.8-2.4,4.2-4.9,7.8-7.9,21.1-22.2,30.5-32.8,16.2-18.2,28.7-33.6,35.5-43.8,1.4-2,2.7-3.7,2.8-3.7s2.6,1.3,5.4,2.9h0ZM721.5,163.9c7.6,2.1,13,7,15,13.4,2.2,7-.8,14.6-7.7,19.9-11.7,9.1-29.1,11.3-48.5,6.3-9.1-2.3-21.2-7.4-29.8-12.3l-2.3-1.4,2.3-1.5c1.3-.8,3.4-2.1,4.6-2.8,23.7-14.8,35.8-20.3,49.5-22.4,5.1-.7,12.9-.4,16.8.6h0ZM611.4,167.7c2,1.5,3.6,3,3.6,3.2-.1.4-13.2,8.7-20,12.6-4.3,2.5-5.6,3-4.7,1.7,5.8-7.6,16.7-20.6,17.1-20.5.2,0,1.9,1.4,4,3h0ZM623.8,177.2c4,3,18.4,12.8,19.3,13.1.7.2,0,1.1-1.8,2l-1.7.8-5.7-1.1c-10.1-1.9-14.1-2.3-27.1-2.5-12.1-.2-12.5-.2-11.7-.9.4-.4,4.3-2.9,8.6-5.5,4.3-2.7,9.5-5.9,11.5-7.1,2-1.2,3.8-2.1,4-2,.2.1,2.2,1.6,4.4,3.3h0Z"/>
    <g>
      <path class="cls-6" d="M489.3,244.5v-12.5c0-.8-.3-1-1.7-1h0c0-.1,5-.1,5-.1h0c-1.4.2-1.7.4-1.7,1.2v12.5c0,.6.3.8.9.8h2.2c2,0,3-.7,4.4-3.3h.1l-1.1,3.6h-9.9c1.4-.2,1.7-.4,1.7-1.2Z"/>
      <path class="cls-6" d="M505.1,238.5c0-4.7,3.3-7.8,7.5-7.8s7.3,3,7.3,7.4-3.4,7.8-7.6,7.8-7.2-3-7.2-7.4ZM512.7,245.6c3.1,0,5.4-2.7,5.4-6.9s-2.4-7.7-5.9-7.7-5.4,2.8-5.4,6.9,2.4,7.7,5.8,7.7Z"/>
      <path class="cls-6" d="M528.7,244.5v-12.5c0-.8-.3-.9-1.7-1h0c0-.1,4.7-.1,4.7-.1,3.7,0,5.7,1.2,5.7,3.5s-2.1,3.3-3.8,3.7l3.2,4.8c1.2,1.9,2,2.6,3,2.7h0c-.3.2-.9.2-1.3.2-1.2,0-1.9-.3-3-2.1l-2.8-4.5c-.4-.8-.7-.8-1.2-.8h-1.2v6.2c0,.8.3,1,1.9,1h0c0,.1-5.2.1-5.2.1h0c1.4-.2,1.7-.4,1.7-1.2ZM531.5,238c2.5,0,4.2-1.2,4.2-3.3s-1.6-3.5-4.4-3.5h-1v6.9h1.3Z"/>
      <path class="cls-6" d="M547.5,244.5v-12.5c0-.8-.3-1-1.7-1h0c0-.1,10.1-.1,10.1-.1l.7,3.4h-.2c-1-2.4-1.8-3-4.1-3h-3.2v6.8h2.8c1.8,0,2.3-.7,2.6-2.5h.1v5.4h-.1c-.3-1.9-.8-2.6-2.6-2.6h-2.8v6.2c0,.6.3.8.9.8h2.8c2,0,3-.6,4.3-3.2h.1l-1.1,3.6h-10.4c1.4-.2,1.7-.4,1.7-1.2Z"/>
      <path class="cls-6" d="M566.1,243.4v-10.3c0-1.6-.5-2-2-2.1h0c0-.1,3.4-.1,3.4-.1l8.7,12.1v-9.8c0-1.6-.5-2-2.6-2.1h0c0-.1,5-.1,5-.1h0c-1.5.3-2,.7-2,2.3v12.8h-.1l-10-13.6v11.2c0,1.6.5,2,2.6,2.1h0c0,.1-5,.1-5,.1h0c1.5-.3,2-.7,2-2.3Z"/>
      <path class="cls-6" d="M595.1,244.2l-1.6-4.3h-5.2l-1.3,3.6c-.5,1.4-.2,2,1.6,2.1h0c0,.1-4.3.1-4.3.1h0c1-.3,1.7-.8,2.3-2.4l4-11.1-.4-.9c.5-.1,1.1-.4,1.4-.8h.1c.2.7.3,1,.8,2.4l3.9,10.7c.6,1.6.9,1.9,2.2,2h0c0,.1-5.1.1-5.1.1h0c1.7-.2,1.8-.5,1.5-1.5ZM593.4,239.5l-2.4-6.9-2.4,6.9h4.9Z"/>
      <path class="cls-6" d="M616.3,244.5v-12.5c0-.8-.3-.9-1.7-1h0c0-.1,4.7-.1,4.7-.1,3.7,0,5.7,1.2,5.7,3.5s-2.1,3.3-3.8,3.7l3.2,4.8c1.2,1.9,2,2.6,3,2.7h0c-.3.2-.9.2-1.3.2-1.2,0-1.9-.3-3-2.1l-2.8-4.5c-.4-.8-.7-.8-1.2-.8h-1.2v6.2c0,.8.3,1,1.9,1h0c0,.1-5.2.1-5.2.1h0c1.4-.2,1.7-.4,1.7-1.2ZM619.2,238c2.5,0,4.2-1.2,4.2-3.3s-1.6-3.5-4.4-3.5h-1v6.9h1.3Z"/>
      <path class="cls-6" d="M643.5,244.2l-1.6-4.3h-5.2l-1.3,3.6c-.5,1.4-.2,2,1.6,2.1h0c0,.1-4.3.1-4.3.1h0c1-.3,1.7-.8,2.3-2.4l4-11.1-.4-.9c.5-.1,1.1-.4,1.4-.8h.1c.2.7.3,1,.8,2.4l3.9,10.7c.6,1.6.9,1.9,2.2,2h0c0,.1-5.1.1-5.1.1h0c1.7-.2,1.8-.5,1.5-1.5ZM641.8,239.5l-2.4-6.9-2.4,6.9h4.9ZM637.3,226.5c.5,1.2,1.5,1.8,2.7,1.8s2.2-.6,2.7-1.8h.1c-.4,1.7-1.3,2.8-2.9,2.8s-2.4-1.1-2.9-2.7h.1Z"/>
      <path class="cls-6" d="M653.9,240.4v-8.4c0-.8-.3-1-1.7-1h0c0-.1,5-.1,5-.1h0c-1.4.2-1.7.4-1.7,1.2v8.3c0,3.5,1.7,5,4.3,5s4.4-1.3,4.4-4.9v-7.2c0-1.6-.5-2-2.4-2.1h0c0-.1,4.8-.1,4.8-.1h0c-1.5.3-2,.7-2,2.3v7.2c0,3.9-2.1,5.5-5.4,5.5s-5.3-1.6-5.3-5.5Z"/>
      <path class="cls-6" d="M678.5,244.5v-13.3h-1.5c-2.2,0-3,.5-4,3h-.1l.7-3.5c.4,0,1.2.1,2,.1h7.5c.8,0,1.6,0,2-.1l.7,3.5h-.2c-1-2.6-1.8-3-4-3h-1.5v13.3c0,.8.3,1,1.7,1h0c0,.1-5,.1-5,.1h0c1.4-.2,1.7-.4,1.7-1.2ZM680,248.3c0-.1,0-.2,0-.3-.2.1-.4.2-.7.2-.4,0-.8-.3-.8-.7s.3-.8.9-.8,1.2.6,1.2,1.3-.7,1.8-2.2,2.2h0c1.1-.5,1.6-1.2,1.6-1.9Z"/>
      <path class="cls-6" d="M700.4,244.2l-1.6-4.3h-5.2l-1.3,3.6c-.5,1.4-.2,2,1.6,2.1h0c0,.1-4.3.1-4.3.1h0c1-.3,1.7-.8,2.3-2.4l4-11.1-.4-.9c.5-.1,1.1-.4,1.4-.8h.1c.2.7.3,1,.8,2.4l3.9,10.7c.6,1.6.9,1.9,2.2,2h0c0,.1-5.1.1-5.1.1h0c1.7-.2,1.8-.5,1.5-1.5ZM698.7,239.5l-2.4-6.9-2.4,6.9h4.9ZM694.3,226.5c.5,1.2,1.5,1.8,2.7,1.8s2.2-.6,2.7-1.8h.1c-.4,1.7-1.3,2.8-2.9,2.8s-2.4-1.1-2.9-2.7h.1Z"/>
    </g>
    <g>
      <path class="cls-6" d="M507.3,264.3l-1.6-5.9h.5l1.3,5.1h0l1.3-5.1h.6l1.3,5.1h0l1.3-5.1h.5l-1.6,5.9h-.6l-1.4-5h0l-1.4,5h-.6Z"/>
      <path class="cls-6" d="M521.1,264.3v-5.9h3.4v.5h-2.9v2.2h2.7v.5h-2.7v2.2h2.9v.5h-3.5Z"/>
      <path class="cls-6" d="M534.9,264.3h-1.7v-5.9h1.8c.6,0,1,.1,1.4.4.4.2.7.6.9,1,.2.4.3,1,.3,1.6s-.1,1.1-.3,1.6c-.2.4-.5.8-.9,1s-.9.4-1.5.4ZM533.7,263.8h1.2c.5,0,.9,0,1.3-.3.3-.2.6-.5.8-.9s.3-.8.3-1.3c0-.5,0-.9-.3-1.3s-.4-.6-.7-.8-.7-.3-1.2-.3h-1.3v4.9Z"/>
      <path class="cls-6" d="M548,264.3h-1.7v-5.9h1.8c.6,0,1,.1,1.4.4.4.2.7.6.9,1,.2.4.3,1,.3,1.6s-.1,1.1-.3,1.6c-.2.4-.5.8-.9,1s-.9.4-1.5.4ZM546.8,263.8h1.2c.5,0,.9,0,1.3-.3.3-.2.6-.5.8-.9s.3-.8.3-1.3c0-.5,0-.9-.3-1.3s-.4-.6-.7-.8-.7-.3-1.2-.3h-1.3v4.9Z"/>
      <path class="cls-6" d="M559.9,258.4v5.9h-.5v-5.9h.5Z"/>
      <path class="cls-6" d="M573.4,258.4v5.9h-.5l-3.5-4.9h0v4.9h-.5v-5.9h.5l3.5,4.9h0v-4.9h.5Z"/>
      <path class="cls-6" d="M586.3,260.2c0-.2-.1-.4-.2-.6-.1-.2-.2-.3-.4-.5-.2-.1-.3-.2-.5-.3-.2,0-.4-.1-.7-.1-.4,0-.7,0-1,.3-.3.2-.5.5-.7.9s-.3.8-.3,1.4,0,1,.3,1.4c.2.4.4.7.7.9.3.2.7.3,1.1.3s.7,0,1-.2c.3-.2.5-.4.7-.7.2-.3.2-.7.2-1.1h.2c0,0-1.9,0-1.9,0v-.5h2.2v.5c0,.5-.1.9-.3,1.3-.2.4-.5.6-.8.8s-.8.3-1.2.3-1-.1-1.3-.4c-.4-.2-.7-.6-.9-1.1-.2-.5-.3-1-.3-1.6s0-.9.2-1.3c.1-.4.3-.7.5-1,.2-.3.5-.5.8-.6.3-.1.7-.2,1-.2s.6,0,.9.2c.3.1.5.2.7.4s.4.4.5.6c.1.2.2.5.3.7h-.6Z"/>
      <path class="cls-6" d="M605.1,264.3v-5.9h1.9c.4,0,.8,0,1,.2.3.2.5.4.6.7.1.3.2.6.2.9s0,.7-.2.9c-.1.3-.4.5-.6.7-.3.2-.6.2-1,.2h-1.5v-.5h1.5c.3,0,.6,0,.8-.2.2-.1.4-.3.5-.5.1-.2.2-.4.2-.7s0-.5-.2-.7c-.1-.2-.3-.4-.5-.5-.2-.1-.5-.2-.8-.2h-1.3v5.4h-.5Z"/>
      <path class="cls-6" d="M617.4,264.3v-5.9h.5v5.4h2.8v.5h-3.3Z"/>
      <path class="cls-6" d="M629.3,264.3h-.6l2.1-5.9h.6l2.1,5.9h-.6l-1.8-5.2h0l-1.8,5.2ZM629.7,262h2.9v.5h-2.9v-.5Z"/>
      <path class="cls-6" d="M646.5,258.4v5.9h-.5l-3.5-4.9h0v4.9h-.5v-5.9h.5l3.5,4.9h0v-4.9h.5Z"/>
      <path class="cls-6" d="M659.9,258.4v5.9h-.5l-3.5-4.9h0v4.9h-.5v-5.9h.5l3.5,4.9h0v-4.9h.5Z"/>
      <path class="cls-6" d="M668.8,264.3v-5.9h3.4v.5h-2.9v2.2h2.7v.5h-2.7v2.2h2.9v.5h-3.5Z"/>
      <path class="cls-6" d="M680.9,264.3v-5.9h1.9c.4,0,.8,0,1,.2.3.2.5.4.6.6.1.3.2.6.2.9s0,.6-.2.9c-.1.3-.4.5-.6.6-.3.1-.6.2-1,.2h-1.6v-.5h1.6c.3,0,.6,0,.8-.2.2-.1.4-.2.5-.4.1-.2.2-.4.2-.7s0-.5-.2-.7c-.1-.2-.3-.3-.5-.4-.2-.1-.5-.2-.8-.2h-1.3v5.4h-.5ZM683.5,261.6l1.4,2.7h-.6l-1.4-2.7h.6Z"/>
    </g>
  </g>
  <g>
    <path class="cls-5" d="M-188.1,114.5c-2.1.5-7.2,2.9-10.4,4.9-7,4.4-14.7,10.7-22.7,18.9-2.4,2.5-4.6,4.5-4.8,4.5s-1.9-1.1-3.9-2.3c-4.3-2.9-10.6-6.7-14.8-9-1.8-1-3.3-1.8-3.4-1.9,0,0,.5-1.6,1.4-3.4,1.3-2.7,1.6-3.9,1.7-6.2.2-2.5,0-3-.7-3.8-.5-.5-1.4-.8-2-.8-1.1,0-1.2.1-1.3,1.9-.1,1.2-.9,3.4-2.1,5.7-1.1,2.1-2,3.9-2.1,4s-1.1-.3-2.1-.9c-7-3.6-20.8-8-29-9.4-6.1-1-19-1-24.3,0-12.7,2.5-25.1,9.2-33.7,18.3-7.9,8.3-12.9,18.8-14.5,30.6-.6,4.4-.6,5.1,0,9.7.8,6,2.7,11.8,5.4,16.3,2.1,3.4,6.7,8.7,9.6,10.9.9.7.1-.2-1.8-2.1-5.9-5.8-9.1-11.2-11.1-18.8-1-3.5-1.1-4.8-1.1-10.1s.2-7,.7-9c3.8-16.8,14.8-30.5,30.8-38.3,9.1-4.4,16.3-6.1,26.9-6,11.1,0,20.5,2,32.9,6.9,4.9,1.9,9.4,4,9.9,4.4.2.2-3.7,6.6-7.8,12.7-16.8,25.3-42.5,54.5-62.2,70.9-3.8,3.2-4.3,3.8-4.3,4.9s1.5,3.1,3.4,3.8c1.5.6,4.2.2,13.8-2.1,22.5-5.3,32.7-6.8,47.3-7.1,9-.2,18,.2,18.6.8.1.1-.2.8-.6,1.6-.4.8-.9,2.2-1.1,3.2-.2,1.7-.2,1.9.6,2.1.5.2,1.2,0,1.7-.3.4-.3,4.4-5.1,8.9-10.6,9.4-11.7,12.5-15,14.6-15.6,1.9-.5,11-1.2,20.8-1.5,8.4-.3,14.9.1,21.5,1.3,2,.4,4.5.8,5.6.9l2,.3-4.2,2c-7.8,3.6-15.8,6.1-23.1,7.2-1.9.3-6.4.5-10.1.5-5.6,0-6.2,0-4,.4,3.9.5,13.3,0,18.6-.9,7-1.3,15.7-4.3,24.1-8.6l7.3-3.7,2.8,1.6c18,10.1,35.9,15.5,51.3,15.7,19.2,0,35.8-9.1,39.6-21.9.9-3,.8-7.5-.1-10.5-2-6.5-7.9-11.9-15.6-14.5-3.1-1-3.6-1.1-11.1-1.1-7.6,0-8,0-13.1,1.3-13,3.4-22,7.8-42.9,21-4.2,2.7-8.1,5.1-8.6,5.3-.8.4-1.3.3-4-1.4-8.2-5-21.6-14.6-21.4-15.1,0-.2,3.8-2.9,8.4-5.9,19-12.9,32.5-24.2,38.9-32.9,3.2-4.2,5.7-9.3,5.9-12,.2-2.1.1-2.2-1.4-3.7-1.9-1.9-3.8-2.4-7.2-1.8-8.6,1.5-22.6,10.4-41.7,26.4-4.1,3.4-5.9,4.6-5.9,4s1.6-3.5,3.6-7.6c6.6-13.6,8.2-19.3,6.1-22-1.6-2-4.7-2.8-8.3-1.9h0ZM-183.3,116.6c.8,2.5-5.1,18-10.8,28.5-3.2,5.9-8.9,14.4-9.4,14.2-.2,0-3.4-2.4-7.2-5.3-3.7-2.8-8.1-6-9.8-7.2l-3-2.1.8-1.2c1.6-2.3,9.5-10.3,14.1-14.2,7.9-6.8,15.9-11.8,21.2-13.3,2.7-.8,3.7-.6,4,.4ZM-137.1,117.8c.8.7.7,3.6-.4,5.8-4,8.5-21.7,24.1-46.3,40.8l-7,4.8-4.4-3.4-4.4-3.3,1.9-2.3c3.5-4,17.1-17.1,22.3-21.4,5.8-4.9,13.8-10.8,19.6-14.8,8.5-5.7,16.2-8.3,18.6-6.3ZM-244.1,134.8c3.9,2.3,12.7,7.8,16.3,10.1.2.2-.8,1.8-2.2,3.6-5.9,8-7.7,15.7-4.2,18,2.2,1.5,7.2-.3,12-4.2,3-2.5,6.9-6.8,6.5-7.2s-2.1-.3-3.1.2c-.5.2-2.5,2.1-4.5,4-7,6.8-10.8,8-10.8,3.3s3.9-9.9,7.9-14.8l1-1.2,4.9,3.5c9.2,6.7,15.1,11.3,15,11.8,0,.3-2.9,3.6-6.2,7.4-10.1,11.2-21.4,25.6-29.1,36.7-4,5.9-3.2,5.4-7.6,4.7-4.9-.8-24.5-.8-31.5-.2-12,1.2-23.7,3-35.9,5.5-4,.8-6.7,1.2-6.8.9-.1-.2,1.8-2.4,4.2-4.9,7.8-7.9,21.1-22.2,30.5-32.8,16.2-18.2,28.7-33.6,35.5-43.8,1.4-2,2.7-3.7,2.8-3.7s2.6,1.3,5.4,2.9h0ZM-87.2,163.9c7.6,2.1,13,7,15,13.4,2.2,7-.8,14.6-7.7,19.9-11.7,9.1-29.1,11.3-48.5,6.3-9.1-2.3-21.2-7.4-29.8-12.3l-2.3-1.4,2.3-1.5c1.3-.8,3.4-2.1,4.6-2.8,23.7-14.8,35.8-20.3,49.5-22.4,5.1-.7,12.9-.4,16.8.6h0ZM-197.3,167.7c2,1.5,3.6,3,3.6,3.2-.1.4-13.2,8.7-20,12.6-4.3,2.5-5.6,3-4.7,1.7,5.8-7.6,16.7-20.6,17.1-20.5.2,0,1.9,1.4,4,3h0ZM-184.9,177.2c4,3,18.4,12.8,19.3,13.1.7.2,0,1.1-1.8,2l-1.7.8-5.7-1.1c-10.1-1.9-14.1-2.3-27.1-2.5-12.1-.2-12.5-.2-11.7-.9.4-.4,4.3-2.9,8.6-5.5,4.3-2.7,9.5-5.9,11.5-7.1,2-1.2,3.8-2.1,4-2,.2.1,2.2,1.6,4.4,3.3h0Z"/>
    <g>
      <path class="cls-6" d="M-319.4,244.5v-12.5c0-.8-.3-1-1.7-1h0c0-.1,5-.1,5-.1h0c-1.4.2-1.7.4-1.7,1.2v12.5c0,.6.3.8.9.8h2.2c2,0,3-.7,4.4-3.3h.1l-1.1,3.6h-9.9c1.4-.2,1.7-.4,1.7-1.2Z"/>
      <path class="cls-6" d="M-303.6,238.5c0-4.7,3.3-7.8,7.5-7.8s7.3,3,7.3,7.4-3.4,7.8-7.6,7.8-7.2-3-7.2-7.4ZM-296,245.6c3.1,0,5.4-2.7,5.4-6.9s-2.4-7.7-5.9-7.7-5.4,2.8-5.4,6.9,2.4,7.7,5.8,7.7Z"/>
      <path class="cls-6" d="M-280,244.5v-12.5c0-.8-.3-.9-1.7-1h0c0-.1,4.7-.1,4.7-.1,3.7,0,5.7,1.2,5.7,3.5s-2.1,3.3-3.8,3.7l3.2,4.8c1.2,1.9,2,2.6,3,2.7h0c-.3.2-.9.2-1.3.2-1.2,0-1.9-.3-3-2.1l-2.8-4.5c-.4-.8-.7-.8-1.2-.8h-1.2v6.2c0,.8.3,1,1.9,1h0c0,.1-5.2.1-5.2.1h0c1.4-.2,1.7-.4,1.7-1.2ZM-277.2,238c2.5,0,4.2-1.2,4.2-3.3s-1.6-3.5-4.4-3.5h-1v6.9h1.3Z"/>
      <path class="cls-6" d="M-261.2,244.5v-12.5c0-.8-.3-1-1.7-1h0c0-.1,10.1-.1,10.1-.1l.7,3.4h-.2c-1-2.4-1.8-3-4.1-3h-3.2v6.8h2.8c1.8,0,2.3-.7,2.6-2.5h.1v5.4h-.1c-.3-1.9-.8-2.6-2.6-2.6h-2.8v6.2c0,.6.3.8.9.8h2.8c2,0,3-.6,4.3-3.2h.1l-1.1,3.6h-10.4c1.4-.2,1.7-.4,1.7-1.2Z"/>
      <path class="cls-6" d="M-242.6,243.4v-10.3c0-1.6-.5-2-2-2.1h0c0-.1,3.4-.1,3.4-.1l8.7,12.1v-9.8c0-1.6-.5-2-2.6-2.1h0c0-.1,5-.1,5-.1h0c-1.5.3-2,.7-2,2.3v12.8h-.1l-10-13.6v11.2c0,1.6.5,2,2.6,2.1h0c0,.1-5,.1-5,.1h0c1.5-.3,2-.7,2-2.3Z"/>
      <path class="cls-6" d="M-213.6,244.2l-1.6-4.3h-5.2l-1.3,3.6c-.5,1.4-.2,2,1.6,2.1h0c0,.1-4.3.1-4.3.1h0c1-.3,1.7-.8,2.3-2.4l4-11.1-.4-.9c.5-.1,1.1-.4,1.4-.8h.1c.2.7.3,1,.8,2.4l3.9,10.7c.6,1.6.9,1.9,2.2,2h0c0,.1-5.1.1-5.1.1h0c1.7-.2,1.8-.5,1.5-1.5ZM-215.3,239.5l-2.4-6.9-2.4,6.9h4.9Z"/>
      <path class="cls-6" d="M-192.4,244.5v-12.5c0-.8-.3-.9-1.7-1h0c0-.1,4.7-.1,4.7-.1,3.7,0,5.7,1.2,5.7,3.5s-2.1,3.3-3.8,3.7l3.2,4.8c1.2,1.9,2,2.6,3,2.7h0c-.3.2-.9.2-1.3.2-1.2,0-1.9-.3-3-2.1l-2.8-4.5c-.4-.8-.7-.8-1.2-.8h-1.2v6.2c0,.8.3,1,1.9,1h0c0,.1-5.2.1-5.2.1h0c1.4-.2,1.7-.4,1.7-1.2ZM-189.6,238c2.5,0,4.2-1.2,4.2-3.3s-1.6-3.5-4.4-3.5h-1v6.9h1.3Z"/>
      <path class="cls-6" d="M-165.3,244.2l-1.6-4.3h-5.2l-1.3,3.6c-.5,1.4-.2,2,1.6,2.1h0c0,.1-4.3.1-4.3.1h0c1-.3,1.7-.8,2.3-2.4l4-11.1-.4-.9c.5-.1,1.1-.4,1.4-.8h.1c.2.7.3,1,.8,2.4l3.9,10.7c.6,1.6.9,1.9,2.2,2h0c0,.1-5.1.1-5.1.1h0c1.7-.2,1.8-.5,1.5-1.5ZM-167,239.5l-2.4-6.9-2.4,6.9h4.9ZM-171.4,226.5c.5,1.2,1.5,1.8,2.7,1.8s2.2-.6,2.7-1.8h.1c-.4,1.7-1.3,2.8-2.9,2.8s-2.4-1.1-2.9-2.7h.1Z"/>
      <path class="cls-6" d="M-154.8,240.4v-8.4c0-.8-.3-1-1.7-1h0c0-.1,5-.1,5-.1h0c-1.4.2-1.7.4-1.7,1.2v8.3c0,3.5,1.7,5,4.3,5s4.4-1.3,4.4-4.9v-7.2c0-1.6-.5-2-2.4-2.1h0c0-.1,4.8-.1,4.8-.1h0c-1.5.3-2,.7-2,2.3v7.2c0,3.9-2.1,5.5-5.4,5.5s-5.3-1.6-5.3-5.5Z"/>
      <path class="cls-6" d="M-130.3,244.5v-13.3h-1.5c-2.2,0-3,.5-4,3h-.1l.7-3.5c.4,0,1.2.1,2,.1h7.5c.8,0,1.6,0,2-.1l.7,3.5h-.2c-1-2.6-1.8-3-4-3h-1.5v13.3c0,.8.3,1,1.7,1h0c0,.1-5,.1-5,.1h0c1.4-.2,1.7-.4,1.7-1.2ZM-128.8,248.3c0-.1,0-.2,0-.3-.2.1-.4.2-.7.2-.4,0-.8-.3-.8-.7s.3-.8.9-.8,1.2.6,1.2,1.3-.7,1.8-2.2,2.2h0c1.1-.5,1.6-1.2,1.6-1.9Z"/>
      <path class="cls-6" d="M-108.3,244.2l-1.6-4.3h-5.2l-1.3,3.6c-.5,1.4-.2,2,1.6,2.1h0c0,.1-4.3.1-4.3.1h0c1-.3,1.7-.8,2.3-2.4l4-11.1-.4-.9c.5-.1,1.1-.4,1.4-.8h.1c.2.7.3,1,.8,2.4l3.9,10.7c.6,1.6.9,1.9,2.2,2h0c0,.1-5.1.1-5.1.1h0c1.7-.2,1.8-.5,1.5-1.5ZM-110,239.5l-2.4-6.9-2.4,6.9h4.9ZM-114.5,226.5c.5,1.2,1.5,1.8,2.7,1.8s2.2-.6,2.7-1.8h.1c-.4,1.7-1.3,2.8-2.9,2.8s-2.4-1.1-2.9-2.7h.1Z"/>
    </g>
    <g>
      <path class="cls-6" d="M-301.4,264.3l-1.6-5.9h.5l1.3,5.1h0l1.3-5.1h.6l1.3,5.1h0l1.3-5.1h.5l-1.6,5.9h-.6l-1.4-5h0l-1.4,5h-.6Z"/>
      <path class="cls-6" d="M-287.6,264.3v-5.9h3.4v.5h-2.9v2.2h2.7v.5h-2.7v2.2h2.9v.5h-3.5Z"/>
      <path class="cls-6" d="M-273.8,264.3h-1.7v-5.9h1.8c.6,0,1,.1,1.4.4.4.2.7.6.9,1,.2.4.3,1,.3,1.6s-.1,1.1-.3,1.6c-.2.4-.5.8-.9,1s-.9.4-1.5.4ZM-275,263.8h1.2c.5,0,.9,0,1.3-.3.3-.2.6-.5.8-.9s.3-.8.3-1.3c0-.5,0-.9-.3-1.3s-.4-.6-.7-.8-.7-.3-1.2-.3h-1.3v4.9Z"/>
      <path class="cls-6" d="M-260.7,264.3h-1.7v-5.9h1.8c.6,0,1,.1,1.4.4.4.2.7.6.9,1,.2.4.3,1,.3,1.6s-.1,1.1-.3,1.6c-.2.4-.5.8-.9,1s-.9.4-1.5.4ZM-261.9,263.8h1.2c.5,0,.9,0,1.3-.3.3-.2.6-.5.8-.9s.3-.8.3-1.3c0-.5,0-.9-.3-1.3s-.4-.6-.7-.8-.7-.3-1.2-.3h-1.3v4.9Z"/>
      <path class="cls-6" d="M-248.8,258.4v5.9h-.5v-5.9h.5Z"/>
      <path class="cls-6" d="M-235.4,258.4v5.9h-.5l-3.5-4.9h0v4.9h-.5v-5.9h.5l3.5,4.9h0v-4.9h.5Z"/>
      <path class="cls-6" d="M-222.4,260.2c0-.2-.1-.4-.2-.6-.1-.2-.2-.3-.4-.5-.2-.1-.3-.2-.5-.3-.2,0-.4-.1-.7-.1-.4,0-.7,0-1,.3-.3.2-.5.5-.7.9s-.3.8-.3,1.4,0,1,.3,1.4c.2.4.4.7.7.9.3.2.7.3,1.1.3s.7,0,1-.2c.3-.2.5-.4.7-.7.2-.3.2-.7.2-1.1h.2c0,0-1.9,0-1.9,0v-.5h2.2v.5c0,.5-.1.9-.3,1.3-.2.4-.5.6-.8.8s-.8.3-1.2.3-1-.1-1.3-.4c-.4-.2-.7-.6-.9-1.1-.2-.5-.3-1-.3-1.6s0-.9.2-1.3c.1-.4.3-.7.5-1,.2-.3.5-.5.8-.6.3-.1.7-.2,1-.2s.6,0,.9.2c.3.1.5.2.7.4s.4.4.5.6c.1.2.2.5.3.7h-.6Z"/>
      <path class="cls-6" d="M-203.7,264.3v-5.9h1.9c.4,0,.8,0,1,.2.3.2.5.4.6.7.1.3.2.6.2.9s0,.7-.2.9c-.1.3-.4.5-.6.7-.3.2-.6.2-1,.2h-1.5v-.5h1.5c.3,0,.6,0,.8-.2.2-.1.4-.3.5-.5.1-.2.2-.4.2-.7s0-.5-.2-.7c-.1-.2-.3-.4-.5-.5-.2-.1-.5-.2-.8-.2h-1.3v5.4h-.5Z"/>
      <path class="cls-6" d="M-191.3,264.3v-5.9h.5v5.4h2.8v.5h-3.3Z"/>
      <path class="cls-6" d="M-179.5,264.3h-.6l2.1-5.9h.6l2.1,5.9h-.6l-1.8-5.2h0l-1.8,5.2ZM-179,262h2.9v.5h-2.9v-.5Z"/>
      <path class="cls-6" d="M-162.3,258.4v5.9h-.5l-3.5-4.9h0v4.9h-.5v-5.9h.5l3.5,4.9h0v-4.9h.5Z"/>
      <path class="cls-6" d="M-148.8,258.4v5.9h-.5l-3.5-4.9h0v4.9h-.5v-5.9h.5l3.5,4.9h0v-4.9h.5Z"/>
      <path class="cls-6" d="M-140,264.3v-5.9h3.4v.5h-2.9v2.2h2.7v.5h-2.7v2.2h2.9v.5h-3.5Z"/>
      <path class="cls-6" d="M-127.9,264.3v-5.9h1.9c.4,0,.8,0,1,.2.3.2.5.4.6.6.1.3.2.6.2.9s0,.6-.2.9c-.1.3-.4.5-.6.6-.3.1-.6.2-1,.2h-1.6v-.5h1.6c.3,0,.6,0,.8-.2.2-.1.4-.2.5-.4.1-.2.2-.4.2-.7s0-.5-.2-.7c-.1-.2-.3-.3-.5-.4-.2-.1-.5-.2-.8-.2h-1.3v5.4h-.5ZM-125.3,261.6l1.4,2.7h-.6l-1.4-2.7h.6Z"/>
    </g>
  </g>
  <rect class="cls-1" x="404" y="1.5" width="383.2" height="373.5"/>
  <g>
    <path class="cls-5" d="M620.6,114.5c-2.1.5-7.2,2.9-10.4,4.9-7,4.4-14.7,10.7-22.7,18.9-2.4,2.5-4.6,4.5-4.8,4.5s-1.9-1.1-3.9-2.3c-4.3-2.9-10.6-6.7-14.8-9-1.8-1-3.3-1.8-3.4-1.9,0,0,.5-1.6,1.4-3.4,1.3-2.7,1.6-3.9,1.7-6.2.2-2.5,0-3-.7-3.8-.5-.5-1.4-.8-2-.8-1.1,0-1.2.1-1.3,1.9-.1,1.2-.9,3.4-2.1,5.7-1.1,2.1-2,3.9-2.1,4s-1.1-.3-2.1-.9c-7-3.6-20.8-8-29-9.4-6.1-1-19-1-24.3,0-12.7,2.5-25.1,9.2-33.7,18.3-7.9,8.3-12.9,18.8-14.5,30.6-.6,4.4-.6,5.1,0,9.7.8,6,2.7,11.8,5.4,16.3,2.1,3.4,6.7,8.7,9.6,10.9.9.7.1-.2-1.8-2.1-5.9-5.8-9.1-11.2-11.1-18.8-1-3.5-1.1-4.8-1.1-10.1s.2-7,.7-9c3.8-16.8,14.8-30.5,30.8-38.3,9.1-4.4,16.3-6.1,26.9-6,11.1,0,20.5,2,32.9,6.9,4.9,1.9,9.4,4,9.9,4.4.2.2-3.7,6.6-7.8,12.7-16.8,25.3-42.5,54.5-62.2,70.9-3.8,3.2-4.3,3.8-4.3,4.9s1.5,3.1,3.4,3.8c1.5.6,4.2.2,13.8-2.1,22.5-5.3,32.7-6.8,47.3-7.1,9-.2,18,.2,18.6.8.1.1-.2.8-.6,1.6-.4.8-.9,2.2-1.1,3.2-.2,1.7-.2,1.9.6,2.1.5.2,1.2,0,1.7-.3.4-.3,4.4-5.1,8.9-10.6,9.4-11.7,12.5-15,14.6-15.6,1.9-.5,11-1.2,20.8-1.5,8.4-.3,14.9.1,21.5,1.3,2,.4,4.5.8,5.6.9l2,.3-4.2,2c-7.8,3.6-15.8,6.1-23.1,7.2-1.9.3-6.4.5-10.1.5-5.6,0-6.2,0-4,.4,3.9.5,13.3,0,18.6-.9,7-1.3,15.7-4.3,24.1-8.6l7.3-3.7,2.8,1.6c18,10.1,35.9,15.5,51.3,15.7,19.2,0,35.8-9.1,39.6-21.9.9-3,.8-7.5-.1-10.5-2-6.5-7.9-11.9-15.6-14.5-3.1-1-3.6-1.1-11.1-1.1-7.6,0-8,0-13.1,1.3-13,3.4-22,7.8-42.9,21-4.2,2.7-8.1,5.1-8.6,5.3-.8.4-1.3.3-4-1.4-8.2-5-21.6-14.6-21.4-15.1,0-.2,3.8-2.9,8.4-5.9,19-12.9,32.5-24.2,38.9-32.9,3.2-4.2,5.7-9.3,5.9-12,.2-2.1.1-2.2-1.4-3.7-1.9-1.9-3.8-2.4-7.2-1.8-8.6,1.5-22.6,10.4-41.7,26.4-4.1,3.4-5.9,4.6-5.9,4s1.6-3.5,3.6-7.6c6.6-13.6,8.2-19.3,6.1-22-1.6-2-4.7-2.8-8.3-1.9h0ZM625.5,116.6c.8,2.5-5.1,18-10.8,28.5-3.2,5.9-8.9,14.4-9.4,14.2-.2,0-3.4-2.4-7.2-5.3-3.7-2.8-8.1-6-9.8-7.2l-3-2.1.8-1.2c1.6-2.3,9.5-10.3,14.1-14.2,7.9-6.8,15.9-11.8,21.2-13.3,2.7-.8,3.7-.6,4,.4ZM671.6,117.8c.8.7.7,3.6-.4,5.8-4,8.5-21.7,24.1-46.3,40.8l-7,4.8-4.4-3.4-4.4-3.3,1.9-2.3c3.5-4,17.1-17.1,22.3-21.4,5.8-4.9,13.8-10.8,19.6-14.8,8.5-5.7,16.2-8.3,18.6-6.3ZM564.6,134.8c3.9,2.3,12.7,7.8,16.3,10.1.2.2-.8,1.8-2.2,3.6-5.9,8-7.7,15.7-4.2,18,2.2,1.5,7.2-.3,12-4.2,3-2.5,6.9-6.8,6.5-7.2s-2.1-.3-3.1.2c-.5.2-2.5,2.1-4.5,4-7,6.8-10.8,8-10.8,3.3s3.9-9.9,7.9-14.8l1-1.2,4.9,3.5c9.2,6.7,15.1,11.3,15,11.8,0,.3-2.9,3.6-6.2,7.4-10.1,11.2-21.4,25.6-29.1,36.7-4,5.9-3.2,5.4-7.6,4.7-4.9-.8-24.5-.8-31.5-.2-12,1.2-23.7,3-35.9,5.5-4,.8-6.7,1.2-6.8.9-.1-.2,1.8-2.4,4.2-4.9,7.8-7.9,21.1-22.2,30.5-32.8,16.2-18.2,28.7-33.6,35.5-43.8,1.4-2,2.7-3.7,2.8-3.7s2.6,1.3,5.4,2.9h0ZM721.5,163.9c7.6,2.1,13,7,15,13.4,2.2,7-.8,14.6-7.7,19.9-11.7,9.1-29.1,11.3-48.5,6.3-9.1-2.3-21.2-7.4-29.8-12.3l-2.3-1.4,2.3-1.5c1.3-.8,3.4-2.1,4.6-2.8,23.7-14.8,35.8-20.3,49.5-22.4,5.1-.7,12.9-.4,16.8.6h0ZM611.4,167.7c2,1.5,3.6,3,3.6,3.2-.1.4-13.2,8.7-20,12.6-4.3,2.5-5.6,3-4.7,1.7,5.8-7.6,16.7-20.6,17.1-20.5.2,0,1.9,1.4,4,3h0ZM623.8,177.2c4,3,18.4,12.8,19.3,13.1.7.2,0,1.1-1.8,2l-1.7.8-5.7-1.1c-10.1-1.9-14.1-2.3-27.1-2.5-12.1-.2-12.5-.2-11.7-.9.4-.4,4.3-2.9,8.6-5.5,4.3-2.7,9.5-5.9,11.5-7.1,2-1.2,3.8-2.1,4-2,.2.1,2.2,1.6,4.4,3.3h0Z"/>
    <g>
      <path class="cls-6" d="M489.3,244.5v-12.5c0-.8-.3-1-1.7-1h0c0-.1,5-.1,5-.1h0c-1.4.2-1.7.4-1.7,1.2v12.5c0,.6.3.8.9.8h2.2c2,0,3-.7,4.4-3.3h.1l-1.1,3.6h-9.9c1.4-.2,1.7-.4,1.7-1.2Z"/>
      <path class="cls-6" d="M505.1,238.5c0-4.7,3.3-7.8,7.5-7.8s7.3,3,7.3,7.4-3.4,7.8-7.6,7.8-7.2-3-7.2-7.4ZM512.7,245.6c3.1,0,5.4-2.7,5.4-6.9s-2.4-7.7-5.9-7.7-5.4,2.8-5.4,6.9,2.4,7.7,5.8,7.7Z"/>
      <path class="cls-6" d="M528.7,244.5v-12.5c0-.8-.3-.9-1.7-1h0c0-.1,4.7-.1,4.7-.1,3.7,0,5.7,1.2,5.7,3.5s-2.1,3.3-3.8,3.7l3.2,4.8c1.2,1.9,2,2.6,3,2.7h0c-.3.2-.9.2-1.3.2-1.2,0-1.9-.3-3-2.1l-2.8-4.5c-.4-.8-.7-.8-1.2-.8h-1.2v6.2c0,.8.3,1,1.9,1h0c0,.1-5.2.1-5.2.1h0c1.4-.2,1.7-.4,1.7-1.2ZM531.5,238c2.5,0,4.2-1.2,4.2-3.3s-1.6-3.5-4.4-3.5h-1v6.9h1.3Z"/>
      <path class="cls-6" d="M547.5,244.5v-12.5c0-.8-.3-1-1.7-1h0c0-.1,10.1-.1,10.1-.1l.7,3.4h-.2c-1-2.4-1.8-3-4.1-3h-3.2v6.8h2.8c1.8,0,2.3-.7,2.6-2.5h.1v5.4h-.1c-.3-1.9-.8-2.6-2.6-2.6h-2.8v6.2c0,.6.3.8.9.8h2.8c2,0,3-.6,4.3-3.2h.1l-1.1,3.6h-10.4c1.4-.2,1.7-.4,1.7-1.2Z"/>
      <path class="cls-6" d="M566.1,243.4v-10.3c0-1.6-.5-2-2-2.1h0c0-.1,3.4-.1,3.4-.1l8.7,12.1v-9.8c0-1.6-.5-2-2.6-2.1h0c0-.1,5-.1,5-.1h0c-1.5.3-2,.7-2,2.3v12.8h-.1l-10-13.6v11.2c0,1.6.5,2,2.6,2.1h0c0,.1-5,.1-5,.1h0c1.5-.3,2-.7,2-2.3Z"/>
      <path class="cls-6" d="M595.1,244.2l-1.6-4.3h-5.2l-1.3,3.6c-.5,1.4-.2,2,1.6,2.1h0c0,.1-4.3.1-4.3.1h0c1-.3,1.7-.8,2.3-2.4l4-11.1-.4-.9c.5-.1,1.1-.4,1.4-.8h.1c.2.7.3,1,.8,2.4l3.9,10.7c.6,1.6.9,1.9,2.2,2h0c0,.1-5.1.1-5.1.1h0c1.7-.2,1.8-.5,1.5-1.5ZM593.4,239.5l-2.4-6.9-2.4,6.9h4.9Z"/>
      <path class="cls-6" d="M616.3,244.5v-12.5c0-.8-.3-.9-1.7-1h0c0-.1,4.7-.1,4.7-.1,3.7,0,5.7,1.2,5.7,3.5s-2.1,3.3-3.8,3.7l3.2,4.8c1.2,1.9,2,2.6,3,2.7h0c-.3.2-.9.2-1.3.2-1.2,0-1.9-.3-3-2.1l-2.8-4.5c-.4-.8-.7-.8-1.2-.8h-1.2v6.2c0,.8.3,1,1.9,1h0c0,.1-5.2.1-5.2.1h0c1.4-.2,1.7-.4,1.7-1.2ZM619.2,238c2.5,0,4.2-1.2,4.2-3.3s-1.6-3.5-4.4-3.5h-1v6.9h1.3Z"/>
      <path class="cls-6" d="M643.5,244.2l-1.6-4.3h-5.2l-1.3,3.6c-.5,1.4-.2,2,1.6,2.1h0c0,.1-4.3.1-4.3.1h0c1-.3,1.7-.8,2.3-2.4l4-11.1-.4-.9c.5-.1,1.1-.4,1.4-.8h.1c.2.7.3,1,.8,2.4l3.9,10.7c.6,1.6.9,1.9,2.2,2h0c0,.1-5.1.1-5.1.1h0c1.7-.2,1.8-.5,1.5-1.5ZM641.8,239.5l-2.4-6.9-2.4,6.9h4.9ZM637.3,226.5c.5,1.2,1.5,1.8,2.7,1.8s2.2-.6,2.7-1.8h.1c-.4,1.7-1.3,2.8-2.9,2.8s-2.4-1.1-2.9-2.7h.1Z"/>
      <path class="cls-6" d="M653.9,240.4v-8.4c0-.8-.3-1-1.7-1h0c0-.1,5-.1,5-.1h0c-1.4.2-1.7.4-1.7,1.2v8.3c0,3.5,1.7,5,4.3,5s4.4-1.3,4.4-4.9v-7.2c0-1.6-.5-2-2.4-2.1h0c0-.1,4.8-.1,4.8-.1h0c-1.5.3-2,.7-2,2.3v7.2c0,3.9-2.1,5.5-5.4,5.5s-5.3-1.6-5.3-5.5Z"/>
      <path class="cls-6" d="M678.5,244.5v-13.3h-1.5c-2.2,0-3,.5-4,3h-.1l.7-3.5c.4,0,1.2.1,2,.1h7.5c.8,0,1.6,0,2-.1l.7,3.5h-.2c-1-2.6-1.8-3-4-3h-1.5v13.3c0,.8.3,1,1.7,1h0c0,.1-5,.1-5,.1h0c1.4-.2,1.7-.4,1.7-1.2ZM680,248.3c0-.1,0-.2,0-.3-.2.1-.4.2-.7.2-.4,0-.8-.3-.8-.7s.3-.8.9-.8,1.2.6,1.2,1.3-.7,1.8-2.2,2.2h0c1.1-.5,1.6-1.2,1.6-1.9Z"/>
      <path class="cls-6" d="M700.4,244.2l-1.6-4.3h-5.2l-1.3,3.6c-.5,1.4-.2,2,1.6,2.1h0c0,.1-4.3.1-4.3.1h0c1-.3,1.7-.8,2.3-2.4l4-11.1-.4-.9c.5-.1,1.1-.4,1.4-.8h.1c.2.7.3,1,.8,2.4l3.9,10.7c.6,1.6.9,1.9,2.2,2h0c0,.1-5.1.1-5.1.1h0c1.7-.2,1.8-.5,1.5-1.5ZM698.7,239.5l-2.4-6.9-2.4,6.9h4.9ZM694.3,226.5c.5,1.2,1.5,1.8,2.7,1.8s2.2-.6,2.7-1.8h.1c-.4,1.7-1.3,2.8-2.9,2.8s-2.4-1.1-2.9-2.7h.1Z"/>
    </g>
    <g>
      <path class="cls-6" d="M507.3,264.3l-1.6-5.9h.5l1.3,5.1h0l1.3-5.1h.6l1.3,5.1h0l1.3-5.1h.5l-1.6,5.9h-.6l-1.4-5h0l-1.4,5h-.6Z"/>
      <path class="cls-6" d="M521.1,264.3v-5.9h3.4v.5h-2.9v2.2h2.7v.5h-2.7v2.2h2.9v.5h-3.5Z"/>
      <path class="cls-6" d="M534.9,264.3h-1.7v-5.9h1.8c.6,0,1,.1,1.4.4.4.2.7.6.9,1,.2.4.3,1,.3,1.6s-.1,1.1-.3,1.6c-.2.4-.5.8-.9,1s-.9.4-1.5.4ZM533.7,263.8h1.2c.5,0,.9,0,1.3-.3.3-.2.6-.5.8-.9s.3-.8.3-1.3c0-.5,0-.9-.3-1.3s-.4-.6-.7-.8-.7-.3-1.2-.3h-1.3v4.9Z"/>
      <path class="cls-6" d="M548,264.3h-1.7v-5.9h1.8c.6,0,1,.1,1.4.4.4.2.7.6.9,1,.2.4.3,1,.3,1.6s-.1,1.1-.3,1.6c-.2.4-.5.8-.9,1s-.9.4-1.5.4ZM546.8,263.8h1.2c.5,0,.9,0,1.3-.3.3-.2.6-.5.8-.9s.3-.8.3-1.3c0-.5,0-.9-.3-1.3s-.4-.6-.7-.8-.7-.3-1.2-.3h-1.3v4.9Z"/>
      <path class="cls-6" d="M559.9,258.4v5.9h-.5v-5.9h.5Z"/>
      <path class="cls-6" d="M573.4,258.4v5.9h-.5l-3.5-4.9h0v4.9h-.5v-5.9h.5l3.5,4.9h0v-4.9h.5Z"/>
      <path class="cls-6" d="M586.3,260.2c0-.2-.1-.4-.2-.6-.1-.2-.2-.3-.4-.5-.2-.1-.3-.2-.5-.3-.2,0-.4-.1-.7-.1-.4,0-.7,0-1,.3-.3.2-.5.5-.7.9s-.3.8-.3,1.4,0,1,.3,1.4c.2.4.4.7.7.9.3.2.7.3,1.1.3s.7,0,1-.2c.3-.2.5-.4.7-.7.2-.3.2-.7.2-1.1h.2c0,0-1.9,0-1.9,0v-.5h2.2v.5c0,.5-.1.9-.3,1.3-.2.4-.5.6-.8.8s-.8.3-1.2.3-1-.1-1.3-.4c-.4-.2-.7-.6-.9-1.1-.2-.5-.3-1-.3-1.6s0-.9.2-1.3c.1-.4.3-.7.5-1,.2-.3.5-.5.8-.6.3-.1.7-.2,1-.2s.6,0,.9.2c.3.1.5.2.7.4s.4.4.5.6c.1.2.2.5.3.7h-.6Z"/>
      <path class="cls-6" d="M605.1,264.3v-5.9h1.9c.4,0,.8,0,1,.2.3.2.5.4.6.7.1.3.2.6.2.9s0,.7-.2.9c-.1.3-.4.5-.6.7-.3.2-.6.2-1,.2h-1.5v-.5h1.5c.3,0,.6,0,.8-.2.2-.1.4-.3.5-.5.1-.2.2-.4.2-.7s0-.5-.2-.7c-.1-.2-.3-.4-.5-.5-.2-.1-.5-.2-.8-.2h-1.3v5.4h-.5Z"/>
      <path class="cls-6" d="M617.4,264.3v-5.9h.5v5.4h2.8v.5h-3.3Z"/>
      <path class="cls-6" d="M629.3,264.3h-.6l2.1-5.9h.6l2.1,5.9h-.6l-1.8-5.2h0l-1.8,5.2ZM629.7,262h2.9v.5h-2.9v-.5Z"/>
      <path class="cls-6" d="M646.5,258.4v5.9h-.5l-3.5-4.9h0v4.9h-.5v-5.9h.5l3.5,4.9h0v-4.9h.5Z"/>
      <path class="cls-6" d="M659.9,258.4v5.9h-.5l-3.5-4.9h0v4.9h-.5v-5.9h.5l3.5,4.9h0v-4.9h.5Z"/>
      <path class="cls-6" d="M668.8,264.3v-5.9h3.4v.5h-2.9v2.2h2.7v.5h-2.7v2.2h2.9v.5h-3.5Z"/>
      <path class="cls-6" d="M680.9,264.3v-5.9h1.9c.4,0,.8,0,1,.2.3.2.5.4.6.6.1.3.2.6.2.9s0,.6-.2.9c-.1.3-.4.5-.6.6-.3.1-.6.2-1,.2h-1.6v-.5h1.6c.3,0,.6,0,.8-.2.2-.1.4-.2.5-.4.1-.2.2-.4.2-.7s0-.5-.2-.7c-.1-.2-.3-.3-.5-.4-.2-.1-.5-.2-.8-.2h-1.3v5.4h-.5ZM683.5,261.6l1.4,2.7h-.6l-1.4-2.7h.6Z"/>
    </g>
  </g>
  <g>
    <path class="cls-5" d="M214.6,112c-2.1.5-7.2,2.9-10.4,4.9-7,4.4-14.7,10.7-22.7,18.9-2.4,2.5-4.6,4.5-4.8,4.5s-1.9-1.1-3.9-2.3c-4.3-2.9-10.6-6.7-14.8-9-1.8-1-3.3-1.8-3.4-1.9,0,0,.5-1.6,1.4-3.4,1.3-2.7,1.6-3.9,1.7-6.2.2-2.5,0-3-.7-3.8-.5-.5-1.4-.8-2-.8-1.1,0-1.2.1-1.3,1.9-.1,1.2-.9,3.4-2.1,5.7-1.1,2.1-2,3.9-2.1,4s-1.1-.3-2.1-.9c-7-3.6-20.8-8-29-9.4-6.1-1-19-1-24.3,0-12.7,2.5-25.1,9.2-33.7,18.3-7.9,8.3-12.9,18.8-14.5,30.6-.6,4.4-.6,5.1,0,9.7.8,6,2.7,11.8,5.4,16.3,2.1,3.4,6.7,8.7,9.6,10.9.9.7.1-.2-1.8-2.1-5.9-5.8-9.1-11.2-11.1-18.8-1-3.5-1.1-4.8-1.1-10.1s.2-7,.7-9c3.8-16.8,14.8-30.5,30.8-38.3,9.1-4.4,16.3-6.1,26.9-6,11.1,0,20.5,2,32.9,6.9,4.9,1.9,9.4,4,9.9,4.4.2.2-3.7,6.6-7.8,12.7-16.8,25.3-42.5,54.5-62.2,70.9-3.8,3.2-4.3,3.8-4.3,4.9s1.5,3.1,3.4,3.8c1.5.6,4.2.2,13.8-2.1,22.5-5.3,32.7-6.8,47.3-7.1,9-.2,18,.2,18.6.8.1.1-.2.8-.6,1.6-.4.8-.9,2.2-1.1,3.2-.2,1.7-.2,1.9.6,2.1.5.2,1.2,0,1.7-.3.4-.3,4.4-5.1,8.9-10.6,9.4-11.7,12.5-15,14.6-15.6,1.9-.5,11-1.2,20.8-1.5,8.4-.3,14.9.1,21.5,1.3,2,.4,4.5.8,5.6.9l2,.3-4.2,2c-7.8,3.6-15.8,6.1-23.1,7.2-1.9.3-6.4.5-10.1.5-5.6,0-6.2,0-4,.4,3.9.5,13.3,0,18.6-.9,7-1.3,15.7-4.3,24.1-8.6l7.3-3.7,2.8,1.6c18,10.1,35.9,15.5,51.3,15.7,19.2,0,35.8-9.1,39.6-21.9.9-3,.8-7.5-.1-10.5-2-6.5-7.9-11.9-15.6-14.5-3.1-1-3.6-1.1-11.1-1.1-7.6,0-8,0-13.1,1.3-13,3.4-22,7.8-42.9,21-4.2,2.7-8.1,5.1-8.6,5.3-.8.4-1.3.3-4-1.4-8.2-5-21.6-14.6-21.4-15.1,0-.2,3.8-2.9,8.4-5.9,19-12.9,32.5-24.2,38.9-32.9,3.2-4.2,5.7-9.3,5.9-12,.2-2.1.1-2.2-1.4-3.7-1.9-1.9-3.8-2.4-7.2-1.8-8.6,1.5-22.6,10.4-41.7,26.4-4.1,3.4-5.9,4.6-5.9,4s1.6-3.5,3.6-7.6c6.6-13.6,8.2-19.3,6.1-22-1.6-2-4.7-2.8-8.3-1.9h0ZM219.4,114.1c.8,2.5-5.1,18-10.8,28.5-3.2,5.9-8.9,14.4-9.4,14.2-.2,0-3.4-2.4-7.2-5.3-3.7-2.8-8.1-6-9.8-7.2l-3-2.1.8-1.2c1.6-2.3,9.5-10.3,14.1-14.2,7.9-6.8,15.9-11.8,21.2-13.3,2.7-.8,3.7-.6,4,.4ZM265.6,115.3c.8.7.7,3.6-.4,5.8-4,8.5-21.7,24.1-46.3,40.8l-7,4.8-4.4-3.4-4.4-3.3,1.9-2.3c3.5-4,17.1-17.1,22.3-21.4,5.8-4.9,13.8-10.8,19.6-14.8,8.5-5.7,16.2-8.3,18.6-6.3ZM158.6,132.3c3.9,2.3,12.7,7.8,16.3,10.1.2.2-.8,1.8-2.2,3.6-5.9,8-7.7,15.7-4.2,18,2.2,1.5,7.2-.3,12-4.2,3-2.5,6.9-6.8,6.5-7.2s-2.1-.3-3.1.2c-.5.2-2.5,2.1-4.5,4-7,6.8-10.8,8-10.8,3.3s3.9-9.9,7.9-14.8l1-1.2,4.9,3.5c9.2,6.7,15.1,11.3,15,11.8,0,.3-2.9,3.6-6.2,7.4-10.1,11.2-21.4,25.6-29.1,36.7-4,5.9-3.2,5.4-7.6,4.7-4.9-.8-24.5-.8-31.5-.2-12,1.2-23.7,3-35.9,5.5-4,.8-6.7,1.2-6.8.9-.1-.2,1.8-2.4,4.2-4.9,7.8-7.9,21.1-22.2,30.5-32.8,16.2-18.2,28.7-33.6,35.5-43.8,1.4-2,2.7-3.7,2.8-3.7s2.6,1.3,5.4,2.9h0ZM315.5,161.3c7.6,2.1,13,7,15,13.4,2.2,7-.8,14.6-7.7,19.9-11.7,9.1-29.1,11.3-48.5,6.3-9.1-2.3-21.2-7.4-29.8-12.3l-2.3-1.4,2.3-1.5c1.3-.8,3.4-2.1,4.6-2.8,23.7-14.8,35.8-20.3,49.5-22.4,5.1-.7,12.9-.4,16.8.6h0ZM205.4,165.2c2,1.5,3.6,3,3.6,3.2-.1.4-13.2,8.7-20,12.6-4.3,2.5-5.6,3-4.7,1.7,5.8-7.6,16.7-20.6,17.1-20.5.2,0,1.9,1.4,4,3h0ZM217.8,174.7c4,3,18.4,12.8,19.3,13.1.7.2,0,1.1-1.8,2l-1.7.8-5.7-1.1c-10.1-1.9-14.1-2.3-27.1-2.5-12.1-.2-12.5-.2-11.7-.9.4-.4,4.3-2.9,8.6-5.5,4.3-2.7,9.5-5.9,11.5-7.1,2-1.2,3.8-2.1,4-2,.2.1,2.2,1.6,4.4,3.3h0Z"/>
    <g>
      <path class="cls-6" d="M83.3,242v-12.5c0-.8-.3-1-1.7-1h0c0-.1,5-.1,5-.1h0c-1.4.2-1.7.4-1.7,1.2v12.5c0,.6.3.8.9.8h2.2c2,0,3-.7,4.4-3.3h.1l-1.1,3.6h-9.9c1.4-.2,1.7-.4,1.7-1.2Z"/>
      <path class="cls-6" d="M99.1,235.9c0-4.7,3.3-7.8,7.5-7.8s7.3,3,7.3,7.4-3.4,7.8-7.6,7.8-7.2-3-7.2-7.4ZM106.7,243c3.1,0,5.4-2.7,5.4-6.9s-2.4-7.7-5.9-7.7-5.4,2.8-5.4,6.9,2.4,7.7,5.8,7.7Z"/>
      <path class="cls-6" d="M122.7,242v-12.5c0-.8-.3-.9-1.7-1h0c0-.1,4.7-.1,4.7-.1,3.7,0,5.7,1.2,5.7,3.5s-2.1,3.3-3.8,3.7l3.2,4.8c1.2,1.9,2,2.6,3,2.7h0c-.3.2-.9.2-1.3.2-1.2,0-1.9-.3-3-2.1l-2.8-4.5c-.4-.8-.7-.8-1.2-.8h-1.2v6.2c0,.8.3,1,1.9,1h0c0,.1-5.2.1-5.2.1h0c1.4-.2,1.7-.4,1.7-1.2ZM125.5,235.5c2.5,0,4.2-1.2,4.2-3.3s-1.6-3.5-4.4-3.5h-1v6.9h1.3Z"/>
      <path class="cls-6" d="M141.5,242v-12.5c0-.8-.3-1-1.7-1h0c0-.1,10.1-.1,10.1-.1l.7,3.4h-.2c-1-2.4-1.8-3-4.1-3h-3.2v6.8h2.8c1.8,0,2.3-.7,2.6-2.5h.1v5.4h-.1c-.3-1.9-.8-2.6-2.6-2.6h-2.8v6.2c0,.6.3.8.9.8h2.8c2,0,3-.6,4.3-3.2h.1l-1.1,3.6h-10.4c1.4-.2,1.7-.4,1.7-1.2Z"/>
      <path class="cls-6" d="M160.1,240.9v-10.3c0-1.6-.5-2-2-2.1h0c0-.1,3.4-.1,3.4-.1l8.7,12.1v-9.8c0-1.6-.5-2-2.6-2.1h0c0-.1,5-.1,5-.1h0c-1.5.3-2,.7-2,2.3v12.8h-.1l-10-13.6v11.2c0,1.6.5,2,2.6,2.1h0c0,.1-5,.1-5,.1h0c1.5-.3,2-.7,2-2.3Z"/>
      <path class="cls-6" d="M189.1,241.7l-1.6-4.3h-5.2l-1.3,3.6c-.5,1.4-.2,2,1.6,2.1h0c0,.1-4.3.1-4.3.1h0c1-.3,1.7-.8,2.3-2.4l4-11.1-.4-.9c.5-.1,1.1-.4,1.4-.8h.1c.2.7.3,1,.8,2.4l3.9,10.7c.6,1.6.9,1.9,2.2,2h0c0,.1-5.1.1-5.1.1h0c1.7-.2,1.8-.5,1.5-1.5ZM187.4,237l-2.4-6.9-2.4,6.9h4.9Z"/>
      <path class="cls-6" d="M210.3,242v-12.5c0-.8-.3-.9-1.7-1h0c0-.1,4.7-.1,4.7-.1,3.7,0,5.7,1.2,5.7,3.5s-2.1,3.3-3.8,3.7l3.2,4.8c1.2,1.9,2,2.6,3,2.7h0c-.3.2-.9.2-1.3.2-1.2,0-1.9-.3-3-2.1l-2.8-4.5c-.4-.8-.7-.8-1.2-.8h-1.2v6.2c0,.8.3,1,1.9,1h0c0,.1-5.2.1-5.2.1h0c1.4-.2,1.7-.4,1.7-1.2ZM213.1,235.5c2.5,0,4.2-1.2,4.2-3.3s-1.6-3.5-4.4-3.5h-1v6.9h1.3Z"/>
      <path class="cls-6" d="M237.4,241.7l-1.6-4.3h-5.2l-1.3,3.6c-.5,1.4-.2,2,1.6,2.1h0c0,.1-4.3.1-4.3.1h0c1-.3,1.7-.8,2.3-2.4l4-11.1-.4-.9c.5-.1,1.1-.4,1.4-.8h.1c.2.7.3,1,.8,2.4l3.9,10.7c.6,1.6.9,1.9,2.2,2h0c0,.1-5.1.1-5.1.1h0c1.7-.2,1.8-.5,1.5-1.5ZM235.7,237l-2.4-6.9-2.4,6.9h4.9ZM231.3,223.9c.5,1.2,1.5,1.8,2.7,1.8s2.2-.6,2.7-1.8h.1c-.4,1.7-1.3,2.8-2.9,2.8s-2.4-1.1-2.9-2.7h.1Z"/>
      <path class="cls-6" d="M247.9,237.9v-8.4c0-.8-.3-1-1.7-1h0c0-.1,5-.1,5-.1h0c-1.4.2-1.7.4-1.7,1.2v8.3c0,3.5,1.7,5,4.3,5s4.4-1.3,4.4-4.9v-7.2c0-1.6-.5-2-2.4-2.1h0c0-.1,4.8-.1,4.8-.1h0c-1.5.3-2,.7-2,2.3v7.2c0,3.9-2.1,5.5-5.4,5.5s-5.3-1.6-5.3-5.5Z"/>
      <path class="cls-6" d="M272.4,242v-13.3h-1.5c-2.2,0-3,.5-4,3h-.1l.7-3.5c.4,0,1.2.1,2,.1h7.5c.8,0,1.6,0,2-.1l.7,3.5h-.2c-1-2.6-1.8-3-4-3h-1.5v13.3c0,.8.3,1,1.7,1h0c0,.1-5,.1-5,.1h0c1.4-.2,1.7-.4,1.7-1.2ZM273.9,245.8c0-.1,0-.2,0-.3-.2.1-.4.2-.7.2-.4,0-.8-.3-.8-.7s.3-.8.9-.8,1.2.6,1.2,1.3-.7,1.8-2.2,2.2h0c1.1-.5,1.6-1.2,1.6-1.9Z"/>
      <path class="cls-6" d="M294.4,241.7l-1.6-4.3h-5.2l-1.3,3.6c-.5,1.4-.2,2,1.6,2.1h0c0,.1-4.3.1-4.3.1h0c1-.3,1.7-.8,2.3-2.4l4-11.1-.4-.9c.5-.1,1.1-.4,1.4-.8h.1c.2.7.3,1,.8,2.4l3.9,10.7c.6,1.6.9,1.9,2.2,2h0c0,.1-5.1.1-5.1.1h0c1.7-.2,1.8-.5,1.5-1.5ZM292.7,237l-2.4-6.9-2.4,6.9h4.9ZM288.2,223.9c.5,1.2,1.5,1.8,2.7,1.8s2.2-.6,2.7-1.8h.1c-.4,1.7-1.3,2.8-2.9,2.8s-2.4-1.1-2.9-2.7h.1Z"/>
    </g>
    <g>
      <path class="cls-6" d="M101.3,261.8l-1.6-5.9h.5l1.3,5.1h0l1.3-5.1h.6l1.3,5.1h0l1.3-5.1h.5l-1.6,5.9h-.6l-1.4-5h0l-1.4,5h-.6Z"/>
      <path class="cls-6" d="M115.1,261.8v-5.9h3.4v.5h-2.9v2.2h2.7v.5h-2.7v2.2h2.9v.5h-3.5Z"/>
      <path class="cls-6" d="M128.9,261.8h-1.7v-5.9h1.8c.6,0,1,.1,1.4.4.4.2.7.6.9,1,.2.4.3,1,.3,1.6s-.1,1.1-.3,1.6c-.2.4-.5.8-.9,1s-.9.4-1.5.4ZM127.7,261.3h1.2c.5,0,.9,0,1.3-.3.3-.2.6-.5.8-.9s.3-.8.3-1.3c0-.5,0-.9-.3-1.3s-.4-.6-.7-.8-.7-.3-1.2-.3h-1.3v4.9Z"/>
      <path class="cls-6" d="M142,261.8h-1.7v-5.9h1.8c.6,0,1,.1,1.4.4.4.2.7.6.9,1,.2.4.3,1,.3,1.6s-.1,1.1-.3,1.6c-.2.4-.5.8-.9,1s-.9.4-1.5.4ZM140.8,261.3h1.2c.5,0,.9,0,1.3-.3.3-.2.6-.5.8-.9s.3-.8.3-1.3c0-.5,0-.9-.3-1.3s-.4-.6-.7-.8-.7-.3-1.2-.3h-1.3v4.9Z"/>
      <path class="cls-6" d="M153.9,255.9v5.9h-.5v-5.9h.5Z"/>
      <path class="cls-6" d="M167.3,255.9v5.9h-.5l-3.5-4.9h0v4.9h-.5v-5.9h.5l3.5,4.9h0v-4.9h.5Z"/>
      <path class="cls-6" d="M180.3,257.7c0-.2-.1-.4-.2-.6-.1-.2-.2-.3-.4-.5-.2-.1-.3-.2-.5-.3-.2,0-.4-.1-.7-.1-.4,0-.7,0-1,.3-.3.2-.5.5-.7.9s-.3.8-.3,1.4,0,1,.3,1.4c.2.4.4.7.7.9.3.2.7.3,1.1.3s.7,0,1-.2c.3-.2.5-.4.7-.7.2-.3.2-.7.2-1.1h.2c0,0-1.9,0-1.9,0v-.5h2.2v.5c0,.5-.1.9-.3,1.3-.2.4-.5.6-.8.8s-.8.3-1.2.3-1-.1-1.3-.4c-.4-.2-.7-.6-.9-1.1-.2-.5-.3-1-.3-1.6s0-.9.2-1.3c.1-.4.3-.7.5-1,.2-.3.5-.5.8-.6.3-.1.7-.2,1-.2s.6,0,.9.2c.3.1.5.2.7.4s.4.4.5.6c.1.2.2.5.3.7h-.6Z"/>
      <path class="cls-6" d="M199,261.8v-5.9h1.9c.4,0,.8,0,1,.2.3.2.5.4.6.7.1.3.2.6.2.9s0,.7-.2.9c-.1.3-.4.5-.6.7-.3.2-.6.2-1,.2h-1.5v-.5h1.5c.3,0,.6,0,.8-.2.2-.1.4-.3.5-.5.1-.2.2-.4.2-.7s0-.5-.2-.7c-.1-.2-.3-.4-.5-.5-.2-.1-.5-.2-.8-.2h-1.3v5.4h-.5Z"/>
      <path class="cls-6" d="M211.4,261.8v-5.9h.5v5.4h2.8v.5h-3.3Z"/>
      <path class="cls-6" d="M223.2,261.8h-.6l2.1-5.9h.6l2.1,5.9h-.6l-1.8-5.2h0l-1.8,5.2ZM223.6,259.5h2.9v.5h-2.9v-.5Z"/>
      <path class="cls-6" d="M240.4,255.9v5.9h-.5l-3.5-4.9h0v4.9h-.5v-5.9h.5l3.5,4.9h0v-4.9h.5Z"/>
      <path class="cls-6" d="M253.9,255.9v5.9h-.5l-3.5-4.9h0v4.9h-.5v-5.9h.5l3.5,4.9h0v-4.9h.5Z"/>
      <path class="cls-6" d="M262.7,261.8v-5.9h3.4v.5h-2.9v2.2h2.7v.5h-2.7v2.2h2.9v.5h-3.5Z"/>
      <path class="cls-6" d="M274.8,261.8v-5.9h1.9c.4,0,.8,0,1,.2.3.2.5.4.6.6.1.3.2.6.2.9s0,.6-.2.9c-.1.3-.4.5-.6.6-.3.1-.6.2-1,.2h-1.6v-.5h1.6c.3,0,.6,0,.8-.2.2-.1.4-.2.5-.4.1-.2.2-.4.2-.7s0-.5-.2-.7c-.1-.2-.3-.3-.5-.4-.2-.1-.5-.2-.8-.2h-1.3v5.4h-.5ZM277.4,259.1l1.4,2.7h-.6l-1.4-2.7h.6Z"/>
    </g>
  </g>
  <rect class="cls-3" x="-2.1" y="-1" width="383.2" height="373.5"/>
  <g>
    <path class="cls-5" d="M214.6,112c-2.1.5-7.2,2.9-10.4,4.9-7,4.4-14.7,10.7-22.7,18.9-2.4,2.5-4.6,4.5-4.8,4.5s-1.9-1.1-3.9-2.3c-4.3-2.9-10.6-6.7-14.8-9-1.8-1-3.3-1.8-3.4-1.9,0,0,.5-1.6,1.4-3.4,1.3-2.7,1.6-3.9,1.7-6.2.2-2.5,0-3-.7-3.8-.5-.5-1.4-.8-2-.8-1.1,0-1.2.1-1.3,1.9-.1,1.2-.9,3.4-2.1,5.7-1.1,2.1-2,3.9-2.1,4s-1.1-.3-2.1-.9c-7-3.6-20.8-8-29-9.4-6.1-1-19-1-24.3,0-12.7,2.5-25.1,9.2-33.7,18.3-7.9,8.3-12.9,18.8-14.5,30.6-.6,4.4-.6,5.1,0,9.7.8,6,2.7,11.8,5.4,16.3,2.1,3.4,6.7,8.7,9.6,10.9.9.7.1-.2-1.8-2.1-5.9-5.8-9.1-11.2-11.1-18.8-1-3.5-1.1-4.8-1.1-10.1s.2-7,.7-9c3.8-16.8,14.8-30.5,30.8-38.3,9.1-4.4,16.3-6.1,26.9-6,11.1,0,20.5,2,32.9,6.9,4.9,1.9,9.4,4,9.9,4.4.2.2-3.7,6.6-7.8,12.7-16.8,25.3-42.5,54.5-62.2,70.9-3.8,3.2-4.3,3.8-4.3,4.9s1.5,3.1,3.4,3.8c1.5.6,4.2.2,13.8-2.1,22.5-5.3,32.7-6.8,47.3-7.1,9-.2,18,.2,18.6.8.1.1-.2.8-.6,1.6-.4.8-.9,2.2-1.1,3.2-.2,1.7-.2,1.9.6,2.1.5.2,1.2,0,1.7-.3.4-.3,4.4-5.1,8.9-10.6,9.4-11.7,12.5-15,14.6-15.6,1.9-.5,11-1.2,20.8-1.5,8.4-.3,14.9.1,21.5,1.3,2,.4,4.5.8,5.6.9l2,.3-4.2,2c-7.8,3.6-15.8,6.1-23.1,7.2-1.9.3-6.4.5-10.1.5-5.6,0-6.2,0-4,.4,3.9.5,13.3,0,18.6-.9,7-1.3,15.7-4.3,24.1-8.6l7.3-3.7,2.8,1.6c18,10.1,35.9,15.5,51.3,15.7,19.2,0,35.8-9.1,39.6-21.9.9-3,.8-7.5-.1-10.5-2-6.5-7.9-11.9-15.6-14.5-3.1-1-3.6-1.1-11.1-1.1-7.6,0-8,0-13.1,1.3-13,3.4-22,7.8-42.9,21-4.2,2.7-8.1,5.1-8.6,5.3-.8.4-1.3.3-4-1.4-8.2-5-21.6-14.6-21.4-15.1,0-.2,3.8-2.9,8.4-5.9,19-12.9,32.5-24.2,38.9-32.9,3.2-4.2,5.7-9.3,5.9-12,.2-2.1.1-2.2-1.4-3.7-1.9-1.9-3.8-2.4-7.2-1.8-8.6,1.5-22.6,10.4-41.7,26.4-4.1,3.4-5.9,4.6-5.9,4s1.6-3.5,3.6-7.6c6.6-13.6,8.2-19.3,6.1-22-1.6-2-4.7-2.8-8.3-1.9h0ZM219.4,114.1c.8,2.5-5.1,18-10.8,28.5-3.2,5.9-8.9,14.4-9.4,14.2-.2,0-3.4-2.4-7.2-5.3-3.7-2.8-8.1-6-9.8-7.2l-3-2.1.8-1.2c1.6-2.3,9.5-10.3,14.1-14.2,7.9-6.8,15.9-11.8,21.2-13.3,2.7-.8,3.7-.6,4,.4ZM265.6,115.3c.8.7.7,3.6-.4,5.8-4,8.5-21.7,24.1-46.3,40.8l-7,4.8-4.4-3.4-4.4-3.3,1.9-2.3c3.5-4,17.1-17.1,22.3-21.4,5.8-4.9,13.8-10.8,19.6-14.8,8.5-5.7,16.2-8.3,18.6-6.3ZM158.6,132.3c3.9,2.3,12.7,7.8,16.3,10.1.2.2-.8,1.8-2.2,3.6-5.9,8-7.7,15.7-4.2,18,2.2,1.5,7.2-.3,12-4.2,3-2.5,6.9-6.8,6.5-7.2s-2.1-.3-3.1.2c-.5.2-2.5,2.1-4.5,4-7,6.8-10.8,8-10.8,3.3s3.9-9.9,7.9-14.8l1-1.2,4.9,3.5c9.2,6.7,15.1,11.3,15,11.8,0,.3-2.9,3.6-6.2,7.4-10.1,11.2-21.4,25.6-29.1,36.7-4,5.9-3.2,5.4-7.6,4.7-4.9-.8-24.5-.8-31.5-.2-12,1.2-23.7,3-35.9,5.5-4,.8-6.7,1.2-6.8.9-.1-.2,1.8-2.4,4.2-4.9,7.8-7.9,21.1-22.2,30.5-32.8,16.2-18.2,28.7-33.6,35.5-43.8,1.4-2,2.7-3.7,2.8-3.7s2.6,1.3,5.4,2.9h0ZM315.5,161.3c7.6,2.1,13,7,15,13.4,2.2,7-.8,14.6-7.7,19.9-11.7,9.1-29.1,11.3-48.5,6.3-9.1-2.3-21.2-7.4-29.8-12.3l-2.3-1.4,2.3-1.5c1.3-.8,3.4-2.1,4.6-2.8,23.7-14.8,35.8-20.3,49.5-22.4,5.1-.7,12.9-.4,16.8.6h0ZM205.4,165.2c2,1.5,3.6,3,3.6,3.2-.1.4-13.2,8.7-20,12.6-4.3,2.5-5.6,3-4.7,1.7,5.8-7.6,16.7-20.6,17.1-20.5.2,0,1.9,1.4,4,3h0ZM217.8,174.7c4,3,18.4,12.8,19.3,13.1.7.2,0,1.1-1.8,2l-1.7.8-5.7-1.1c-10.1-1.9-14.1-2.3-27.1-2.5-12.1-.2-12.5-.2-11.7-.9.4-.4,4.3-2.9,8.6-5.5,4.3-2.7,9.5-5.9,11.5-7.1,2-1.2,3.8-2.1,4-2,.2.1,2.2,1.6,4.4,3.3h0Z"/>
    <g>
      <path class="cls-6" d="M83.3,242v-12.5c0-.8-.3-1-1.7-1h0c0-.1,5-.1,5-.1h0c-1.4.2-1.7.4-1.7,1.2v12.5c0,.6.3.8.9.8h2.2c2,0,3-.7,4.4-3.3h.1l-1.1,3.6h-9.9c1.4-.2,1.7-.4,1.7-1.2Z"/>
      <path class="cls-6" d="M99.1,235.9c0-4.7,3.3-7.8,7.5-7.8s7.3,3,7.3,7.4-3.4,7.8-7.6,7.8-7.2-3-7.2-7.4ZM106.7,243c3.1,0,5.4-2.7,5.4-6.9s-2.4-7.7-5.9-7.7-5.4,2.8-5.4,6.9,2.4,7.7,5.8,7.7Z"/>
      <path class="cls-6" d="M122.7,242v-12.5c0-.8-.3-.9-1.7-1h0c0-.1,4.7-.1,4.7-.1,3.7,0,5.7,1.2,5.7,3.5s-2.1,3.3-3.8,3.7l3.2,4.8c1.2,1.9,2,2.6,3,2.7h0c-.3.2-.9.2-1.3.2-1.2,0-1.9-.3-3-2.1l-2.8-4.5c-.4-.8-.7-.8-1.2-.8h-1.2v6.2c0,.8.3,1,1.9,1h0c0,.1-5.2.1-5.2.1h0c1.4-.2,1.7-.4,1.7-1.2ZM125.5,235.5c2.5,0,4.2-1.2,4.2-3.3s-1.6-3.5-4.4-3.5h-1v6.9h1.3Z"/>
      <path class="cls-6" d="M141.5,242v-12.5c0-.8-.3-1-1.7-1h0c0-.1,10.1-.1,10.1-.1l.7,3.4h-.2c-1-2.4-1.8-3-4.1-3h-3.2v6.8h2.8c1.8,0,2.3-.7,2.6-2.5h.1v5.4h-.1c-.3-1.9-.8-2.6-2.6-2.6h-2.8v6.2c0,.6.3.8.9.8h2.8c2,0,3-.6,4.3-3.2h.1l-1.1,3.6h-10.4c1.4-.2,1.7-.4,1.7-1.2Z"/>
      <path class="cls-6" d="M160.1,240.9v-10.3c0-1.6-.5-2-2-2.1h0c0-.1,3.4-.1,3.4-.1l8.7,12.1v-9.8c0-1.6-.5-2-2.6-2.1h0c0-.1,5-.1,5-.1h0c-1.5.3-2,.7-2,2.3v12.8h-.1l-10-13.6v11.2c0,1.6.5,2,2.6,2.1h0c0,.1-5,.1-5,.1h0c1.5-.3,2-.7,2-2.3Z"/>
      <path class="cls-6" d="M189.1,241.7l-1.6-4.3h-5.2l-1.3,3.6c-.5,1.4-.2,2,1.6,2.1h0c0,.1-4.3.1-4.3.1h0c1-.3,1.7-.8,2.3-2.4l4-11.1-.4-.9c.5-.1,1.1-.4,1.4-.8h.1c.2.7.3,1,.8,2.4l3.9,10.7c.6,1.6.9,1.9,2.2,2h0c0,.1-5.1.1-5.1.1h0c1.7-.2,1.8-.5,1.5-1.5ZM187.4,237l-2.4-6.9-2.4,6.9h4.9Z"/>
      <path class="cls-6" d="M210.3,242v-12.5c0-.8-.3-.9-1.7-1h0c0-.1,4.7-.1,4.7-.1,3.7,0,5.7,1.2,5.7,3.5s-2.1,3.3-3.8,3.7l3.2,4.8c1.2,1.9,2,2.6,3,2.7h0c-.3.2-.9.2-1.3.2-1.2,0-1.9-.3-3-2.1l-2.8-4.5c-.4-.8-.7-.8-1.2-.8h-1.2v6.2c0,.8.3,1,1.9,1h0c0,.1-5.2.1-5.2.1h0c1.4-.2,1.7-.4,1.7-1.2ZM213.1,235.5c2.5,0,4.2-1.2,4.2-3.3s-1.6-3.5-4.4-3.5h-1v6.9h1.3Z"/>
      <path class="cls-6" d="M237.4,241.7l-1.6-4.3h-5.2l-1.3,3.6c-.5,1.4-.2,2,1.6,2.1h0c0,.1-4.3.1-4.3.1h0c1-.3,1.7-.8,2.3-2.4l4-11.1-.4-.9c.5-.1,1.1-.4,1.4-.8h.1c.2.7.3,1,.8,2.4l3.9,10.7c.6,1.6.9,1.9,2.2,2h0c0,.1-5.1.1-5.1.1h0c1.7-.2,1.8-.5,1.5-1.5ZM235.7,237l-2.4-6.9-2.4,6.9h4.9ZM231.3,223.9c.5,1.2,1.5,1.8,2.7,1.8s2.2-.6,2.7-1.8h.1c-.4,1.7-1.3,2.8-2.9,2.8s-2.4-1.1-2.9-2.7h.1Z"/>
      <path class="cls-6" d="M247.9,237.9v-8.4c0-.8-.3-1-1.7-1h0c0-.1,5-.1,5-.1h0c-1.4.2-1.7.4-1.7,1.2v8.3c0,3.5,1.7,5,4.3,5s4.4-1.3,4.4-4.9v-7.2c0-1.6-.5-2-2.4-2.1h0c0-.1,4.8-.1,4.8-.1h0c-1.5.3-2,.7-2,2.3v7.2c0,3.9-2.1,5.5-5.4,5.5s-5.3-1.6-5.3-5.5Z"/>
      <path class="cls-6" d="M272.4,242v-13.3h-1.5c-2.2,0-3,.5-4,3h-.1l.7-3.5c.4,0,1.2.1,2,.1h7.5c.8,0,1.6,0,2-.1l.7,3.5h-.2c-1-2.6-1.8-3-4-3h-1.5v13.3c0,.8.3,1,1.7,1h0c0,.1-5,.1-5,.1h0c1.4-.2,1.7-.4,1.7-1.2ZM273.9,245.8c0-.1,0-.2,0-.3-.2.1-.4.2-.7.2-.4,0-.8-.3-.8-.7s.3-.8.9-.8,1.2.6,1.2,1.3-.7,1.8-2.2,2.2h0c1.1-.5,1.6-1.2,1.6-1.9Z"/>
      <path class="cls-6" d="M294.4,241.7l-1.6-4.3h-5.2l-1.3,3.6c-.5,1.4-.2,2,1.6,2.1h0c0,.1-4.3.1-4.3.1h0c1-.3,1.7-.8,2.3-2.4l4-11.1-.4-.9c.5-.1,1.1-.4,1.4-.8h.1c.2.7.3,1,.8,2.4l3.9,10.7c.6,1.6.9,1.9,2.2,2h0c0,.1-5.1.1-5.1.1h0c1.7-.2,1.8-.5,1.5-1.5ZM292.7,237l-2.4-6.9-2.4,6.9h4.9ZM288.2,223.9c.5,1.2,1.5,1.8,2.7,1.8s2.2-.6,2.7-1.8h.1c-.4,1.7-1.3,2.8-2.9,2.8s-2.4-1.1-2.9-2.7h.1Z"/>
    </g>
    <g>
      <path class="cls-6" d="M101.3,261.8l-1.6-5.9h.5l1.3,5.1h0l1.3-5.1h.6l1.3,5.1h0l1.3-5.1h.5l-1.6,5.9h-.6l-1.4-5h0l-1.4,5h-.6Z"/>
      <path class="cls-6" d="M115.1,261.8v-5.9h3.4v.5h-2.9v2.2h2.7v.5h-2.7v2.2h2.9v.5h-3.5Z"/>
      <path class="cls-6" d="M128.9,261.8h-1.7v-5.9h1.8c.6,0,1,.1,1.4.4.4.2.7.6.9,1,.2.4.3,1,.3,1.6s-.1,1.1-.3,1.6c-.2.4-.5.8-.9,1s-.9.4-1.5.4ZM127.7,261.3h1.2c.5,0,.9,0,1.3-.3.3-.2.6-.5.8-.9s.3-.8.3-1.3c0-.5,0-.9-.3-1.3s-.4-.6-.7-.8-.7-.3-1.2-.3h-1.3v4.9Z"/>
      <path class="cls-6" d="M142,261.8h-1.7v-5.9h1.8c.6,0,1,.1,1.4.4.4.2.7.6.9,1,.2.4.3,1,.3,1.6s-.1,1.1-.3,1.6c-.2.4-.5.8-.9,1s-.9.4-1.5.4ZM140.8,261.3h1.2c.5,0,.9,0,1.3-.3.3-.2.6-.5.8-.9s.3-.8.3-1.3c0-.5,0-.9-.3-1.3s-.4-.6-.7-.8-.7-.3-1.2-.3h-1.3v4.9Z"/>
      <path class="cls-6" d="M153.9,255.9v5.9h-.5v-5.9h.5Z"/>
      <path class="cls-6" d="M167.3,255.9v5.9h-.5l-3.5-4.9h0v4.9h-.5v-5.9h.5l3.5,4.9h0v-4.9h.5Z"/>
      <path class="cls-6" d="M180.3,257.7c0-.2-.1-.4-.2-.6-.1-.2-.2-.3-.4-.5-.2-.1-.3-.2-.5-.3-.2,0-.4-.1-.7-.1-.4,0-.7,0-1,.3-.3.2-.5.5-.7.9s-.3.8-.3,1.4,0,1,.3,1.4c.2.4.4.7.7.9.3.2.7.3,1.1.3s.7,0,1-.2c.3-.2.5-.4.7-.7.2-.3.2-.7.2-1.1h.2c0,0-1.9,0-1.9,0v-.5h2.2v.5c0,.5-.1.9-.3,1.3-.2.4-.5.6-.8.8s-.8.3-1.2.3-1-.1-1.3-.4c-.4-.2-.7-.6-.9-1.1-.2-.5-.3-1-.3-1.6s0-.9.2-1.3c.1-.4.3-.7.5-1,.2-.3.5-.5.8-.6.3-.1.7-.2,1-.2s.6,0,.9.2c.3.1.5.2.7.4s.4.4.5.6c.1.2.2.5.3.7h-.6Z"/>
      <path class="cls-6" d="M199,261.8v-5.9h1.9c.4,0,.8,0,1,.2.3.2.5.4.6.7.1.3.2.6.2.9s0,.7-.2.9c-.1.3-.4.5-.6.7-.3.2-.6.2-1,.2h-1.5v-.5h1.5c.3,0,.6,0,.8-.2.2-.1.4-.3.5-.5.1-.2.2-.4.2-.7s0-.5-.2-.7c-.1-.2-.3-.4-.5-.5-.2-.1-.5-.2-.8-.2h-1.3v5.4h-.5Z"/>
      <path class="cls-6" d="M211.4,261.8v-5.9h.5v5.4h2.8v.5h-3.3Z"/>
      <path class="cls-6" d="M223.2,261.8h-.6l2.1-5.9h.6l2.1,5.9h-.6l-1.8-5.2h0l-1.8,5.2ZM223.6,259.5h2.9v.5h-2.9v-.5Z"/>
      <path class="cls-6" d="M240.4,255.9v5.9h-.5l-3.5-4.9h0v4.9h-.5v-5.9h.5l3.5,4.9h0v-4.9h.5Z"/>
      <path class="cls-6" d="M253.9,255.9v5.9h-.5l-3.5-4.9h0v4.9h-.5v-5.9h.5l3.5,4.9h0v-4.9h.5Z"/>
      <path class="cls-6" d="M262.7,261.8v-5.9h3.4v.5h-2.9v2.2h2.7v.5h-2.7v2.2h2.9v.5h-3.5Z"/>
      <path class="cls-6" d="M274.8,261.8v-5.9h1.9c.4,0,.8,0,1,.2.3.2.5.4.6.6.1.3.2.6.2.9s0,.6-.2.9c-.1.3-.4.5-.6.6-.3.1-.6.2-1,.2h-1.6v-.5h1.6c.3,0,.6,0,.8-.2.2-.1.4-.2.5-.4.1-.2.2-.4.2-.7s0-.5-.2-.7c-.1-.2-.3-.3-.5-.4-.2-.1-.5-.2-.8-.2h-1.3v5.4h-.5ZM277.4,259.1l1.4,2.7h-.6l-1.4-2.7h.6Z"/>
    </g>
  </g>
  <g>
    <path class="cls-8" d="M618.9-294.1c-2.1.5-7.2,2.9-10.4,4.9-7,4.4-14.7,10.7-22.7,18.9-2.4,2.5-4.6,4.5-4.8,4.5s-1.9-1.1-3.9-2.3c-4.3-2.9-10.6-6.7-14.8-9-1.8-1-3.3-1.8-3.4-1.9,0,0,.5-1.6,1.4-3.4,1.3-2.7,1.6-3.9,1.7-6.2.2-2.5,0-3-.7-3.8-.5-.5-1.4-.8-2-.8-1.1,0-1.2.1-1.3,1.9-.1,1.2-.9,3.4-2.1,5.7-1.1,2.1-2,3.9-2.1,4s-1.1-.3-2.1-.9c-7-3.6-20.8-8-29-9.4-6.1-1-19-1-24.3,0-12.7,2.5-25.1,9.2-33.7,18.3-7.9,8.3-12.9,18.8-14.5,30.6-.6,4.4-.6,5.1,0,9.7.8,6,2.7,11.8,5.4,16.3,2.1,3.4,6.7,8.7,9.6,10.9.9.7.1-.2-1.8-2.1-5.9-5.8-9.1-11.2-11.1-18.8-1-3.5-1.1-4.8-1.1-10.1s.2-7,.7-9c3.8-16.8,14.8-30.5,30.8-38.3,9.1-4.4,16.3-6.1,26.9-6,11.1,0,20.5,2,32.9,6.9,4.9,1.9,9.4,4,9.9,4.4.2.2-3.7,6.6-7.8,12.7-16.8,25.3-42.5,54.5-62.2,70.9-3.8,3.2-4.3,3.8-4.3,4.9s1.5,3.1,3.4,3.8c1.5.6,4.2.2,13.8-2.1,22.5-5.3,32.7-6.8,47.3-7.1,9-.2,18,.2,18.6.8.1.1-.2.8-.6,1.6-.4.8-.9,2.2-1.1,3.2-.2,1.7-.2,1.9.6,2.1.5.2,1.2,0,1.7-.3.4-.3,4.4-5.1,8.9-10.6,9.4-11.7,12.5-15,14.6-15.6,1.9-.5,11-1.2,20.8-1.5,8.4-.3,14.9.1,21.5,1.3,2,.4,4.5.8,5.6.9l2,.3-4.2,2c-7.8,3.6-15.8,6.1-23.1,7.2-1.9.3-6.4.5-10.1.5-5.6,0-6.2,0-4,.4,3.9.5,13.3,0,18.6-.9,7-1.3,15.7-4.3,24.1-8.6l7.3-3.7,2.8,1.6c18,10.1,35.9,15.5,51.3,15.7,19.2,0,35.8-9.1,39.6-21.9.9-3,.8-7.5-.1-10.5-2-6.5-7.9-11.9-15.6-14.5-3.1-1-3.6-1.1-11.1-1.1-7.6,0-8,0-13.1,1.3-13,3.4-22,7.8-42.9,21-4.2,2.7-8.1,5.1-8.6,5.3-.8.4-1.3.3-4-1.4-8.2-5-21.6-14.6-21.4-15.1,0-.2,3.8-2.9,8.4-5.9,19-12.9,32.5-24.2,38.9-32.9,3.2-4.2,5.7-9.3,5.9-12,.2-2.1.1-2.2-1.4-3.7-1.9-1.9-3.8-2.4-7.2-1.8-8.6,1.5-22.6,10.4-41.7,26.4-4.1,3.4-5.9,4.6-5.9,4s1.6-3.5,3.6-7.6c6.6-13.6,8.2-19.3,6.1-22-1.6-2-4.7-2.8-8.3-1.9h0ZM623.8-292c.8,2.5-5.1,18-10.8,28.5-3.2,5.9-8.9,14.4-9.4,14.2-.2,0-3.4-2.4-7.2-5.3-3.7-2.8-8.1-6-9.8-7.2l-3-2.1.8-1.2c1.6-2.3,9.5-10.3,14.1-14.2,7.9-6.8,15.9-11.8,21.2-13.3,2.7-.8,3.7-.6,4,.4ZM669.9-290.8c.8.7.7,3.6-.4,5.8-4,8.5-21.7,24.1-46.3,40.8l-7,4.8-4.4-3.4-4.4-3.3,1.9-2.3c3.5-4,17.1-17.1,22.3-21.4,5.8-4.9,13.8-10.8,19.6-14.8,8.5-5.7,16.2-8.3,18.6-6.3ZM563-273.8c3.9,2.3,12.7,7.8,16.3,10.1.2.2-.8,1.8-2.2,3.6-5.9,8-7.7,15.7-4.2,18,2.2,1.5,7.2-.3,12-4.2,3-2.5,6.9-6.8,6.5-7.2s-2.1-.3-3.1.2c-.5.2-2.5,2.1-4.5,4-7,6.8-10.8,8-10.8,3.3s3.9-9.9,7.9-14.8l1-1.2,4.9,3.5c9.2,6.7,15.1,11.3,15,11.8,0,.3-2.9,3.6-6.2,7.4-10.1,11.2-21.4,25.6-29.1,36.7-4,5.9-3.2,5.4-7.6,4.7-4.9-.8-24.5-.8-31.5-.2-12,1.2-23.7,3-35.9,5.5-4,.8-6.7,1.2-6.8.9-.1-.2,1.8-2.4,4.2-4.9,7.8-7.9,21.1-22.2,30.5-32.8,16.2-18.2,28.7-33.6,35.5-43.8,1.4-2,2.7-3.7,2.8-3.7s2.6,1.3,5.4,2.9h0ZM719.8-244.7c7.6,2.1,13,7,15,13.4,2.2,7-.8,14.6-7.7,19.9-11.7,9.1-29.1,11.3-48.5,6.3-9.1-2.3-21.2-7.4-29.8-12.3l-2.3-1.4,2.3-1.5c1.3-.8,3.4-2.1,4.6-2.8,23.7-14.8,35.8-20.3,49.5-22.4,5.1-.7,12.9-.4,16.8.6h0ZM609.7-240.9c2,1.5,3.6,3,3.6,3.2-.1.4-13.2,8.7-20,12.6-4.3,2.5-5.6,3-4.7,1.7,5.8-7.6,16.7-20.6,17.1-20.5.2,0,1.9,1.4,4,3h0ZM622.2-231.4c4,3,18.4,12.8,19.3,13.1.7.2,0,1.1-1.8,2l-1.7.8-5.7-1.1c-10.1-1.9-14.1-2.3-27.1-2.5-12.1-.2-12.5-.2-11.7-.9.4-.4,4.3-2.9,8.6-5.5,4.3-2.7,9.5-5.9,11.5-7.1,2-1.2,3.8-2.1,4-2,.2.1,2.2,1.6,4.4,3.3h0Z"/>
    <g>
      <path class="cls-1" d="M487.6-164v-12.5c0-.8-.3-1-1.7-1h0c0-.1,5-.1,5-.1h0c-1.4.2-1.7.4-1.7,1.2v12.5c0,.6.3.8.9.8h2.2c2,0,3-.7,4.4-3.3h.1l-1.1,3.6h-9.9c1.4-.2,1.7-.4,1.7-1.2Z"/>
      <path class="cls-1" d="M503.4-170.1c0-4.7,3.3-7.8,7.5-7.8s7.3,3,7.3,7.4-3.4,7.8-7.6,7.8-7.2-3-7.2-7.4ZM511-163c3.1,0,5.4-2.7,5.4-6.9s-2.4-7.7-5.9-7.7-5.4,2.8-5.4,6.9,2.4,7.7,5.8,7.7Z"/>
      <path class="cls-1" d="M527-164v-12.5c0-.8-.3-.9-1.7-1h0c0-.1,4.7-.1,4.7-.1,3.7,0,5.7,1.2,5.7,3.5s-2.1,3.3-3.8,3.7l3.2,4.8c1.2,1.9,2,2.6,3,2.7h0c-.3.2-.9.2-1.3.2-1.2,0-1.9-.3-3-2.1l-2.8-4.5c-.4-.8-.7-.8-1.2-.8h-1.2v6.2c0,.8.3,1,1.9,1h0c0,.1-5.2.1-5.2.1h0c1.4-.2,1.7-.4,1.7-1.2ZM529.9-170.5c2.5,0,4.2-1.2,4.2-3.3s-1.6-3.5-4.4-3.5h-1v6.9h1.3Z"/>
      <path class="cls-1" d="M545.9-164v-12.5c0-.8-.3-1-1.7-1h0c0-.1,10.1-.1,10.1-.1l.7,3.4h-.2c-1-2.4-1.8-3-4.1-3h-3.2v6.8h2.8c1.8,0,2.3-.7,2.6-2.5h.1v5.4h-.1c-.3-1.9-.8-2.6-2.6-2.6h-2.8v6.2c0,.6.3.8.9.8h2.8c2,0,3-.6,4.3-3.2h.1l-1.1,3.6h-10.4c1.4-.2,1.7-.4,1.7-1.2Z"/>
      <path class="cls-1" d="M564.4-165.1v-10.3c0-1.6-.5-2-2-2.1h0c0-.1,3.4-.1,3.4-.1l8.7,12.1v-9.8c0-1.6-.5-2-2.6-2.1h0c0-.1,5-.1,5-.1h0c-1.5.3-2,.7-2,2.3v12.8h-.1l-10-13.6v11.2c0,1.6.5,2,2.6,2.1h0c0,.1-5,.1-5,.1h0c1.5-.3,2-.7,2-2.3Z"/>
      <path class="cls-1" d="M593.4-164.4l-1.6-4.3h-5.2l-1.3,3.6c-.5,1.4-.2,2,1.6,2.1h0c0,.1-4.3.1-4.3.1h0c1-.3,1.7-.8,2.3-2.4l4-11.1-.4-.9c.5-.1,1.1-.4,1.4-.8h.1c.2.7.3,1,.8,2.4l3.9,10.7c.6,1.6.9,1.9,2.2,2h0c0,.1-5.1.1-5.1.1h0c1.7-.2,1.8-.5,1.5-1.5ZM591.7-169.1l-2.4-6.9-2.4,6.9h4.9Z"/>
      <path class="cls-1" d="M614.7-164v-12.5c0-.8-.3-.9-1.7-1h0c0-.1,4.7-.1,4.7-.1,3.7,0,5.7,1.2,5.7,3.5s-2.1,3.3-3.8,3.7l3.2,4.8c1.2,1.9,2,2.6,3,2.7h0c-.3.2-.9.2-1.3.2-1.2,0-1.9-.3-3-2.1l-2.8-4.5c-.4-.8-.7-.8-1.2-.8h-1.2v6.2c0,.8.3,1,1.9,1h0c0,.1-5.2.1-5.2.1h0c1.4-.2,1.7-.4,1.7-1.2ZM617.5-170.5c2.5,0,4.2-1.2,4.2-3.3s-1.6-3.5-4.4-3.5h-1v6.9h1.3Z"/>
      <path class="cls-1" d="M641.8-164.4l-1.6-4.3h-5.2l-1.3,3.6c-.5,1.4-.2,2,1.6,2.1h0c0,.1-4.3.1-4.3.1h0c1-.3,1.7-.8,2.3-2.4l4-11.1-.4-.9c.5-.1,1.1-.4,1.4-.8h.1c.2.7.3,1,.8,2.4l3.9,10.7c.6,1.6.9,1.9,2.2,2h0c0,.1-5.1.1-5.1.1h0c1.7-.2,1.8-.5,1.5-1.5ZM640.1-169.1l-2.4-6.9-2.4,6.9h4.9ZM635.6-182.1c.5,1.2,1.5,1.8,2.7,1.8s2.2-.6,2.7-1.8h.1c-.4,1.7-1.3,2.8-2.9,2.8s-2.4-1.1-2.9-2.7h.1Z"/>
      <path class="cls-1" d="M652.2-168.1v-8.4c0-.8-.3-1-1.7-1h0c0-.1,5-.1,5-.1h0c-1.4.2-1.7.4-1.7,1.2v8.3c0,3.5,1.7,5,4.3,5s4.4-1.3,4.4-4.9v-7.2c0-1.6-.5-2-2.4-2.1h0c0-.1,4.8-.1,4.8-.1h0c-1.5.3-2,.7-2,2.3v7.2c0,3.9-2.1,5.5-5.4,5.5s-5.3-1.6-5.3-5.5Z"/>
      <path class="cls-1" d="M676.8-164v-13.3h-1.5c-2.2,0-3,.5-4,3h-.1l.7-3.5c.4,0,1.2.1,2,.1h7.5c.8,0,1.6,0,2-.1l.7,3.5h-.2c-1-2.6-1.8-3-4-3h-1.5v13.3c0,.8.3,1,1.7,1h0c0,.1-5,.1-5,.1h0c1.4-.2,1.7-.4,1.7-1.2ZM678.3-160.2c0-.1,0-.2,0-.3-.2.1-.4.2-.7.2-.4,0-.8-.3-.8-.7s.3-.8.9-.8,1.2.6,1.2,1.3-.7,1.8-2.2,2.2h0c1.1-.5,1.6-1.2,1.6-1.9Z"/>
      <path class="cls-1" d="M698.7-164.4l-1.6-4.3h-5.2l-1.3,3.6c-.5,1.4-.2,2,1.6,2.1h0c0,.1-4.3.1-4.3.1h0c1-.3,1.7-.8,2.3-2.4l4-11.1-.4-.9c.5-.1,1.1-.4,1.4-.8h.1c.2.7.3,1,.8,2.4l3.9,10.7c.6,1.6.9,1.9,2.2,2h0c0,.1-5.1.1-5.1.1h0c1.7-.2,1.8-.5,1.5-1.5ZM697-169.1l-2.4-6.9-2.4,6.9h4.9ZM692.6-182.1c.5,1.2,1.5,1.8,2.7,1.8s2.2-.6,2.7-1.8h.1c-.4,1.7-1.3,2.8-2.9,2.8s-2.4-1.1-2.9-2.7h.1Z"/>
    </g>
    <g>
      <path class="cls-1" d="M505.6-144.3l-1.6-5.9h.5l1.3,5.1h0l1.3-5.1h.6l1.3,5.1h0l1.3-5.1h.5l-1.6,5.9h-.6l-1.4-5h0l-1.4,5h-.6Z"/>
      <path class="cls-1" d="M519.4-144.3v-5.9h3.4v.5h-2.9v2.2h2.7v.5h-2.7v2.2h2.9v.5h-3.5Z"/>
      <path class="cls-1" d="M533.3-144.3h-1.7v-5.9h1.8c.6,0,1,.1,1.4.4.4.2.7.6.9,1,.2.4.3,1,.3,1.6s-.1,1.1-.3,1.6c-.2.4-.5.8-.9,1s-.9.4-1.5.4ZM532.1-144.8h1.2c.5,0,.9,0,1.3-.3.3-.2.6-.5.8-.9s.3-.8.3-1.3c0-.5,0-.9-.3-1.3s-.4-.6-.7-.8-.7-.3-1.2-.3h-1.3v4.9Z"/>
      <path class="cls-1" d="M546.3-144.3h-1.7v-5.9h1.8c.6,0,1,.1,1.4.4.4.2.7.6.9,1,.2.4.3,1,.3,1.6s-.1,1.1-.3,1.6c-.2.4-.5.8-.9,1s-.9.4-1.5.4ZM545.2-144.8h1.2c.5,0,.9,0,1.3-.3.3-.2.6-.5.8-.9s.3-.8.3-1.3c0-.5,0-.9-.3-1.3s-.4-.6-.7-.8-.7-.3-1.2-.3h-1.3v4.9Z"/>
      <path class="cls-1" d="M558.3-150.2v5.9h-.5v-5.9h.5Z"/>
      <path class="cls-1" d="M571.7-150.2v5.9h-.5l-3.5-4.9h0v4.9h-.5v-5.9h.5l3.5,4.9h0v-4.9h.5Z"/>
      <path class="cls-1" d="M584.6-148.3c0-.2-.1-.4-.2-.6-.1-.2-.2-.3-.4-.5-.2-.1-.3-.2-.5-.3-.2,0-.4-.1-.7-.1-.4,0-.7,0-1,.3-.3.2-.5.5-.7.9s-.3.8-.3,1.4,0,1,.3,1.4c.2.4.4.7.7.9.3.2.7.3,1.1.3s.7,0,1-.2c.3-.2.5-.4.7-.7.2-.3.2-.7.2-1.1h.2c0,0-1.9,0-1.9,0v-.5h2.2v.5c0,.5-.1.9-.3,1.3-.2.4-.5.6-.8.8s-.8.3-1.2.3-1-.1-1.3-.4c-.4-.2-.7-.6-.9-1.1-.2-.5-.3-1-.3-1.6s0-.9.2-1.3c.1-.4.3-.7.5-1,.2-.3.5-.5.8-.6.3-.1.7-.2,1-.2s.6,0,.9.2c.3.1.5.2.7.4s.4.4.5.6c.1.2.2.5.3.7h-.6Z"/>
      <path class="cls-1" d="M603.4-144.3v-5.9h1.9c.4,0,.8,0,1,.2.3.2.5.4.6.7.1.3.2.6.2.9s0,.7-.2.9c-.1.3-.4.5-.6.7-.3.2-.6.2-1,.2h-1.5v-.5h1.5c.3,0,.6,0,.8-.2.2-.1.4-.3.5-.5.1-.2.2-.4.2-.7s0-.5-.2-.7c-.1-.2-.3-.4-.5-.5-.2-.1-.5-.2-.8-.2h-1.3v5.4h-.5Z"/>
      <path class="cls-1" d="M615.8-144.3v-5.9h.5v5.4h2.8v.5h-3.3Z"/>
      <path class="cls-1" d="M627.6-144.3h-.6l2.1-5.9h.6l2.1,5.9h-.6l-1.8-5.2h0l-1.8,5.2ZM628-146.5h2.9v.5h-2.9v-.5Z"/>
      <path class="cls-1" d="M644.8-150.2v5.9h-.5l-3.5-4.9h0v4.9h-.5v-5.9h.5l3.5,4.9h0v-4.9h.5Z"/>
      <path class="cls-1" d="M658.2-150.2v5.9h-.5l-3.5-4.9h0v4.9h-.5v-5.9h.5l3.5,4.9h0v-4.9h.5Z"/>
      <path class="cls-1" d="M667.1-144.3v-5.9h3.4v.5h-2.9v2.2h2.7v.5h-2.7v2.2h2.9v.5h-3.5Z"/>
      <path class="cls-1" d="M679.2-144.3v-5.9h1.9c.4,0,.8,0,1,.2.3.2.5.4.6.6.1.3.2.6.2.9s0,.6-.2.9c-.1.3-.4.5-.6.6-.3.1-.6.2-1,.2h-1.6v-.5h1.6c.3,0,.6,0,.8-.2.2-.1.4-.2.5-.4.1-.2.2-.4.2-.7s0-.5-.2-.7c-.1-.2-.3-.3-.5-.4-.2-.1-.5-.2-.8-.2h-1.3v5.4h-.5ZM681.8-146.9l1.4,2.7h-.6l-1.4-2.7h.6Z"/>
    </g>
  </g>
  <g>
    <path class="cls-2" d="M214.8-294.1c-2.1.5-7.2,2.9-10.4,4.9-7,4.4-14.7,10.7-22.7,18.9-2.4,2.5-4.6,4.5-4.8,4.5s-1.9-1.1-3.9-2.3c-4.3-2.9-10.6-6.7-14.8-9-1.8-1-3.3-1.8-3.4-1.9,0,0,.5-1.6,1.4-3.4,1.3-2.7,1.6-3.9,1.7-6.2.2-2.5,0-3-.7-3.8-.5-.5-1.4-.8-2-.8-1.1,0-1.2.1-1.3,1.9-.1,1.2-.9,3.4-2.1,5.7-1.1,2.1-2,3.9-2.1,4s-1.1-.3-2.1-.9c-7-3.6-20.8-8-29-9.4-6.1-1-19-1-24.3,0-12.7,2.5-25.1,9.2-33.7,18.3-7.9,8.3-12.9,18.8-14.5,30.6-.6,4.4-.6,5.1,0,9.7.8,6,2.7,11.8,5.4,16.3,2.1,3.4,6.7,8.7,9.6,10.9.9.7.1-.2-1.8-2.1-5.9-5.8-9.1-11.2-11.1-18.8-1-3.5-1.1-4.8-1.1-10.1s.2-7,.7-9c3.8-16.8,14.8-30.5,30.8-38.3,9.1-4.4,16.3-6.1,26.9-6,11.1,0,20.5,2,32.9,6.9,4.9,1.9,9.4,4,9.9,4.4.2.2-3.7,6.6-7.8,12.7-16.8,25.3-42.5,54.5-62.2,70.9-3.8,3.2-4.3,3.8-4.3,4.9s1.5,3.1,3.4,3.8c1.5.6,4.2.2,13.8-2.1,22.5-5.3,32.7-6.8,47.3-7.1,9-.2,18,.2,18.6.8.1.1-.2.8-.6,1.6-.4.8-.9,2.2-1.1,3.2-.2,1.7-.2,1.9.6,2.1.5.2,1.2,0,1.7-.3.4-.3,4.4-5.1,8.9-10.6,9.4-11.7,12.5-15,14.6-15.6,1.9-.5,11-1.2,20.8-1.5,8.4-.3,14.9.1,21.5,1.3,2,.4,4.5.8,5.6.9l2,.3-4.2,2c-7.8,3.6-15.8,6.1-23.1,7.2-1.9.3-6.4.5-10.1.5-5.6,0-6.2,0-4,.4,3.9.5,13.3,0,18.6-.9,7-1.3,15.7-4.3,24.1-8.6l7.3-3.7,2.8,1.6c18,10.1,35.9,15.5,51.3,15.7,19.2,0,35.8-9.1,39.6-21.9.9-3,.8-7.5-.1-10.5-2-6.5-7.9-11.9-15.6-14.5-3.1-1-3.6-1.1-11.1-1.1-7.6,0-8,0-13.1,1.3-13,3.4-22,7.8-42.9,21-4.2,2.7-8.1,5.1-8.6,5.3-.8.4-1.3.3-4-1.4-8.2-5-21.6-14.6-21.4-15.1,0-.2,3.8-2.9,8.4-5.9,19-12.9,32.5-24.2,38.9-32.9,3.2-4.2,5.7-9.3,5.9-12,.2-2.1.1-2.2-1.4-3.7-1.9-1.9-3.8-2.4-7.2-1.8-8.6,1.5-22.6,10.4-41.7,26.4-4.1,3.4-5.9,4.6-5.9,4s1.6-3.5,3.6-7.6c6.6-13.6,8.2-19.3,6.1-22-1.6-2-4.7-2.8-8.3-1.9h0ZM219.7-292c.8,2.5-5.1,18-10.8,28.5-3.2,5.9-8.9,14.4-9.4,14.2-.2,0-3.4-2.4-7.2-5.3-3.7-2.8-8.1-6-9.8-7.2l-3-2.1.8-1.2c1.6-2.3,9.5-10.3,14.1-14.2,7.9-6.8,15.9-11.8,21.2-13.3,2.7-.8,3.7-.6,4,.4ZM265.8-290.8c.8.7.7,3.6-.4,5.8-4,8.5-21.7,24.1-46.3,40.8l-7,4.8-4.4-3.4-4.4-3.3,1.9-2.3c3.5-4,17.1-17.1,22.3-21.4,5.8-4.9,13.8-10.8,19.6-14.8,8.5-5.7,16.2-8.3,18.6-6.3ZM158.9-273.8c3.9,2.3,12.7,7.8,16.3,10.1.2.2-.8,1.8-2.2,3.6-5.9,8-7.7,15.7-4.2,18,2.2,1.5,7.2-.3,12-4.2,3-2.5,6.9-6.8,6.5-7.2s-2.1-.3-3.1.2c-.5.2-2.5,2.1-4.5,4-7,6.8-10.8,8-10.8,3.3s3.9-9.9,7.9-14.8l1-1.2,4.9,3.5c9.2,6.7,15.1,11.3,15,11.8,0,.3-2.9,3.6-6.2,7.4-10.1,11.2-21.4,25.6-29.1,36.7-4,5.9-3.2,5.4-7.6,4.7-4.9-.8-24.5-.8-31.5-.2-12,1.2-23.7,3-35.9,5.5-4,.8-6.7,1.2-6.8.9-.1-.2,1.8-2.4,4.2-4.9,7.8-7.9,21.1-22.2,30.5-32.8,16.2-18.2,28.7-33.6,35.5-43.8,1.4-2,2.7-3.7,2.8-3.7s2.6,1.3,5.4,2.9h0ZM315.7-244.7c7.6,2.1,13,7,15,13.4,2.2,7-.8,14.6-7.7,19.9-11.7,9.1-29.1,11.3-48.5,6.3-9.1-2.3-21.2-7.4-29.8-12.3l-2.3-1.4,2.3-1.5c1.3-.8,3.4-2.1,4.6-2.8,23.7-14.8,35.8-20.3,49.5-22.4,5.1-.7,12.9-.4,16.8.6h0ZM205.7-240.9c2,1.5,3.6,3,3.6,3.2-.1.4-13.2,8.7-20,12.6-4.3,2.5-5.6,3-4.7,1.7,5.8-7.6,16.7-20.6,17.1-20.5.2,0,1.9,1.4,4,3h0ZM218.1-231.4c4,3,18.4,12.8,19.3,13.1.7.2,0,1.1-1.8,2l-1.7.8-5.7-1.1c-10.1-1.9-14.1-2.3-27.1-2.5-12.1-.2-12.5-.2-11.7-.9.4-.4,4.3-2.9,8.6-5.5,4.3-2.7,9.5-5.9,11.5-7.1,2-1.2,3.8-2.1,4-2,.2.1,2.2,1.6,4.4,3.3h0Z"/>
    <g>
      <path class="cls-3" d="M83.5-164v-12.5c0-.8-.3-1-1.7-1h0c0-.1,5-.1,5-.1h0c-1.4.2-1.7.4-1.7,1.2v12.5c0,.6.3.8.9.8h2.2c2,0,3-.7,4.4-3.3h.1l-1.1,3.6h-9.9c1.4-.2,1.7-.4,1.7-1.2Z"/>
      <path class="cls-3" d="M99.3-170.1c0-4.7,3.3-7.8,7.5-7.8s7.3,3,7.3,7.4-3.4,7.8-7.6,7.8-7.2-3-7.2-7.4ZM106.9-163c3.1,0,5.4-2.7,5.4-6.9s-2.4-7.7-5.9-7.7-5.4,2.8-5.4,6.9,2.4,7.7,5.8,7.7Z"/>
      <path class="cls-3" d="M122.9-164v-12.5c0-.8-.3-.9-1.7-1h0c0-.1,4.7-.1,4.7-.1,3.7,0,5.7,1.2,5.7,3.5s-2.1,3.3-3.8,3.7l3.2,4.8c1.2,1.9,2,2.6,3,2.7h0c-.3.2-.9.2-1.3.2-1.2,0-1.9-.3-3-2.1l-2.8-4.5c-.4-.8-.7-.8-1.2-.8h-1.2v6.2c0,.8.3,1,1.9,1h0c0,.1-5.2.1-5.2.1h0c1.4-.2,1.7-.4,1.7-1.2ZM125.8-170.5c2.5,0,4.2-1.2,4.2-3.3s-1.6-3.5-4.4-3.5h-1v6.9h1.3Z"/>
      <path class="cls-3" d="M141.8-164v-12.5c0-.8-.3-1-1.7-1h0c0-.1,10.1-.1,10.1-.1l.7,3.4h-.2c-1-2.4-1.8-3-4.1-3h-3.2v6.8h2.8c1.8,0,2.3-.7,2.6-2.5h.1v5.4h-.1c-.3-1.9-.8-2.6-2.6-2.6h-2.8v6.2c0,.6.3.8.9.8h2.8c2,0,3-.6,4.3-3.2h.1l-1.1,3.6h-10.4c1.4-.2,1.7-.4,1.7-1.2Z"/>
      <path class="cls-3" d="M160.3-165.1v-10.3c0-1.6-.5-2-2-2.1h0c0-.1,3.4-.1,3.4-.1l8.7,12.1v-9.8c0-1.6-.5-2-2.6-2.1h0c0-.1,5-.1,5-.1h0c-1.5.3-2,.7-2,2.3v12.8h-.1l-10-13.6v11.2c0,1.6.5,2,2.6,2.1h0c0,.1-5,.1-5,.1h0c1.5-.3,2-.7,2-2.3Z"/>
      <path class="cls-3" d="M189.3-164.4l-1.6-4.3h-5.2l-1.3,3.6c-.5,1.4-.2,2,1.6,2.1h0c0,.1-4.3.1-4.3.1h0c1-.3,1.7-.8,2.3-2.4l4-11.1-.4-.9c.5-.1,1.1-.4,1.4-.8h.1c.2.7.3,1,.8,2.4l3.9,10.7c.6,1.6.9,1.9,2.2,2h0c0,.1-5.1.1-5.1.1h0c1.7-.2,1.8-.5,1.5-1.5ZM187.7-169.1l-2.4-6.9-2.4,6.9h4.9Z"/>
      <path class="cls-3" d="M210.6-164v-12.5c0-.8-.3-.9-1.7-1h0c0-.1,4.7-.1,4.7-.1,3.7,0,5.7,1.2,5.7,3.5s-2.1,3.3-3.8,3.7l3.2,4.8c1.2,1.9,2,2.6,3,2.7h0c-.3.2-.9.2-1.3.2-1.2,0-1.9-.3-3-2.1l-2.8-4.5c-.4-.8-.7-.8-1.2-.8h-1.2v6.2c0,.8.3,1,1.9,1h0c0,.1-5.2.1-5.2.1h0c1.4-.2,1.7-.4,1.7-1.2ZM213.4-170.5c2.5,0,4.2-1.2,4.2-3.3s-1.6-3.5-4.4-3.5h-1v6.9h1.3Z"/>
      <path class="cls-3" d="M237.7-164.4l-1.6-4.3h-5.2l-1.3,3.6c-.5,1.4-.2,2,1.6,2.1h0c0,.1-4.3.1-4.3.1h0c1-.3,1.7-.8,2.3-2.4l4-11.1-.4-.9c.5-.1,1.1-.4,1.4-.8h.1c.2.7.3,1,.8,2.4l3.9,10.7c.6,1.6.9,1.9,2.2,2h0c0,.1-5.1.1-5.1.1h0c1.7-.2,1.8-.5,1.5-1.5ZM236-169.1l-2.4-6.9-2.4,6.9h4.9ZM231.5-182.1c.5,1.2,1.5,1.8,2.7,1.8s2.2-.6,2.7-1.8h.1c-.4,1.7-1.3,2.8-2.9,2.8s-2.4-1.1-2.9-2.7h.1Z"/>
      <path class="cls-3" d="M248.1-168.1v-8.4c0-.8-.3-1-1.7-1h0c0-.1,5-.1,5-.1h0c-1.4.2-1.7.4-1.7,1.2v8.3c0,3.5,1.7,5,4.3,5s4.4-1.3,4.4-4.9v-7.2c0-1.6-.5-2-2.4-2.1h0c0-.1,4.8-.1,4.8-.1h0c-1.5.3-2,.7-2,2.3v7.2c0,3.9-2.1,5.5-5.4,5.5s-5.3-1.6-5.3-5.5Z"/>
      <path class="cls-3" d="M272.7-164v-13.3h-1.5c-2.2,0-3,.5-4,3h-.1l.7-3.5c.4,0,1.2.1,2,.1h7.5c.8,0,1.6,0,2-.1l.7,3.5h-.2c-1-2.6-1.8-3-4-3h-1.5v13.3c0,.8.3,1,1.7,1h0c0,.1-5,.1-5,.1h0c1.4-.2,1.7-.4,1.7-1.2ZM274.2-160.2c0-.1,0-.2,0-.3-.2.1-.4.2-.7.2-.4,0-.8-.3-.8-.7s.3-.8.9-.8,1.2.6,1.2,1.3-.7,1.8-2.2,2.2h0c1.1-.5,1.6-1.2,1.6-1.9Z"/>
      <path class="cls-3" d="M294.6-164.4l-1.6-4.3h-5.2l-1.3,3.6c-.5,1.4-.2,2,1.6,2.1h0c0,.1-4.3.1-4.3.1h0c1-.3,1.7-.8,2.3-2.4l4-11.1-.4-.9c.5-.1,1.1-.4,1.4-.8h.1c.2.7.3,1,.8,2.4l3.9,10.7c.6,1.6.9,1.9,2.2,2h0c0,.1-5.1.1-5.1.1h0c1.7-.2,1.8-.5,1.5-1.5ZM292.9-169.1l-2.4-6.9-2.4,6.9h4.9ZM288.5-182.1c.5,1.2,1.5,1.8,2.7,1.8s2.2-.6,2.7-1.8h.1c-.4,1.7-1.3,2.8-2.9,2.8s-2.4-1.1-2.9-2.7h.1Z"/>
    </g>
    <g>
      <path class="cls-3" d="M101.5-144.3l-1.6-5.9h.5l1.3,5.1h0l1.3-5.1h.6l1.3,5.1h0l1.3-5.1h.5l-1.6,5.9h-.6l-1.4-5h0l-1.4,5h-.6Z"/>
      <path class="cls-3" d="M115.3-144.3v-5.9h3.4v.5h-2.9v2.2h2.7v.5h-2.7v2.2h2.9v.5h-3.5Z"/>
      <path class="cls-3" d="M129.2-144.3h-1.7v-5.9h1.8c.6,0,1,.1,1.4.4.4.2.7.6.9,1,.2.4.3,1,.3,1.6s-.1,1.1-.3,1.6c-.2.4-.5.8-.9,1s-.9.4-1.5.4ZM128-144.8h1.2c.5,0,.9,0,1.3-.3.3-.2.6-.5.8-.9s.3-.8.3-1.3c0-.5,0-.9-.3-1.3s-.4-.6-.7-.8-.7-.3-1.2-.3h-1.3v4.9Z"/>
      <path class="cls-3" d="M142.3-144.3h-1.7v-5.9h1.8c.6,0,1,.1,1.4.4.4.2.7.6.9,1,.2.4.3,1,.3,1.6s-.1,1.1-.3,1.6c-.2.4-.5.8-.9,1s-.9.4-1.5.4ZM141.1-144.8h1.2c.5,0,.9,0,1.3-.3.3-.2.6-.5.8-.9s.3-.8.3-1.3c0-.5,0-.9-.3-1.3s-.4-.6-.7-.8-.7-.3-1.2-.3h-1.3v4.9Z"/>
      <path class="cls-3" d="M154.2-150.2v5.9h-.5v-5.9h.5Z"/>
      <path class="cls-3" d="M167.6-150.2v5.9h-.5l-3.5-4.9h0v4.9h-.5v-5.9h.5l3.5,4.9h0v-4.9h.5Z"/>
      <path class="cls-3" d="M180.5-148.3c0-.2-.1-.4-.2-.6-.1-.2-.2-.3-.4-.5-.2-.1-.3-.2-.5-.3-.2,0-.4-.1-.7-.1-.4,0-.7,0-1,.3-.3.2-.5.5-.7.9s-.3.8-.3,1.4,0,1,.3,1.4c.2.4.4.7.7.9.3.2.7.3,1.1.3s.7,0,1-.2c.3-.2.5-.4.7-.7.2-.3.2-.7.2-1.1h.2c0,0-1.9,0-1.9,0v-.5h2.2v.5c0,.5-.1.9-.3,1.3-.2.4-.5.6-.8.8s-.8.3-1.2.3-1-.1-1.3-.4c-.4-.2-.7-.6-.9-1.1-.2-.5-.3-1-.3-1.6s0-.9.2-1.3c.1-.4.3-.7.5-1,.2-.3.5-.5.8-.6.3-.1.7-.2,1-.2s.6,0,.9.2c.3.1.5.2.7.4s.4.4.5.6c.1.2.2.5.3.7h-.6Z"/>
      <path class="cls-3" d="M199.3-144.3v-5.9h1.9c.4,0,.8,0,1,.2.3.2.5.4.6.7.1.3.2.6.2.9s0,.7-.2.9c-.1.3-.4.5-.6.7-.3.2-.6.2-1,.2h-1.5v-.5h1.5c.3,0,.6,0,.8-.2.2-.1.4-.3.5-.5.1-.2.2-.4.2-.7s0-.5-.2-.7c-.1-.2-.3-.4-.5-.5-.2-.1-.5-.2-.8-.2h-1.3v5.4h-.5Z"/>
      <path class="cls-3" d="M211.7-144.3v-5.9h.5v5.4h2.8v.5h-3.3Z"/>
      <path class="cls-3" d="M223.5-144.3h-.6l2.1-5.9h.6l2.1,5.9h-.6l-1.8-5.2h0l-1.8,5.2ZM223.9-146.5h2.9v.5h-2.9v-.5Z"/>
      <path class="cls-3" d="M240.7-150.2v5.9h-.5l-3.5-4.9h0v4.9h-.5v-5.9h.5l3.5,4.9h0v-4.9h.5Z"/>
      <path class="cls-3" d="M254.1-150.2v5.9h-.5l-3.5-4.9h0v4.9h-.5v-5.9h.5l3.5,4.9h0v-4.9h.5Z"/>
      <path class="cls-3" d="M263-144.3v-5.9h3.4v.5h-2.9v2.2h2.7v.5h-2.7v2.2h2.9v.5h-3.5Z"/>
      <path class="cls-3" d="M275.1-144.3v-5.9h1.9c.4,0,.8,0,1,.2.3.2.5.4.6.6.1.3.2.6.2.9s0,.6-.2.9c-.1.3-.4.5-.6.6-.3.1-.6.2-1,.2h-1.6v-.5h1.6c.3,0,.6,0,.8-.2.2-.1.4-.2.5-.4.1-.2.2-.4.2-.7s0-.5-.2-.7c-.1-.2-.3-.3-.5-.4-.2-.1-.5-.2-.8-.2h-1.3v5.4h-.5ZM277.7-146.9l1.4,2.7h-.6l-1.4-2.7h.6Z"/>
    </g>
  </g>
  <g>
    <path class="cls-7" d="M-188.1-294.1c-2.1.5-7.2,2.9-10.4,4.9-7,4.4-14.7,10.7-22.7,18.9-2.4,2.5-4.6,4.5-4.8,4.5s-1.9-1.1-3.9-2.3c-4.3-2.9-10.6-6.7-14.8-9-1.8-1-3.3-1.8-3.4-1.9,0,0,.5-1.6,1.4-3.4,1.3-2.7,1.6-3.9,1.7-6.2.2-2.5,0-3-.7-3.8-.5-.5-1.4-.8-2-.8-1.1,0-1.2.1-1.3,1.9-.1,1.2-.9,3.4-2.1,5.7-1.1,2.1-2,3.9-2.1,4s-1.1-.3-2.1-.9c-7-3.6-20.8-8-29-9.4-6.1-1-19-1-24.3,0-12.7,2.5-25.1,9.2-33.7,18.3-7.9,8.3-12.9,18.8-14.5,30.6-.6,4.4-.6,5.1,0,9.7.8,6,2.7,11.8,5.4,16.3,2.1,3.4,6.7,8.7,9.6,10.9.9.7.1-.2-1.8-2.1-5.9-5.8-9.1-11.2-11.1-18.8-1-3.5-1.1-4.8-1.1-10.1s.2-7,.7-9c3.8-16.8,14.8-30.5,30.8-38.3,9.1-4.4,16.3-6.1,26.9-6,11.1,0,20.5,2,32.9,6.9,4.9,1.9,9.4,4,9.9,4.4.2.2-3.7,6.6-7.8,12.7-16.8,25.3-42.5,54.5-62.2,70.9-3.8,3.2-4.3,3.8-4.3,4.9s1.5,3.1,3.4,3.8c1.5.6,4.2.2,13.8-2.1,22.5-5.3,32.7-6.8,47.3-7.1,9-.2,18,.2,18.6.8.1.1-.2.8-.6,1.6-.4.8-.9,2.2-1.1,3.2-.2,1.7-.2,1.9.6,2.1.5.2,1.2,0,1.7-.3.4-.3,4.4-5.1,8.9-10.6,9.4-11.7,12.5-15,14.6-15.6,1.9-.5,11-1.2,20.8-1.5,8.4-.3,14.9.1,21.5,1.3,2,.4,4.5.8,5.6.9l2,.3-4.2,2c-7.8,3.6-15.8,6.1-23.1,7.2-1.9.3-6.4.5-10.1.5-5.6,0-6.2,0-4,.4,3.9.5,13.3,0,18.6-.9,7-1.3,15.7-4.3,24.1-8.6l7.3-3.7,2.8,1.6c18,10.1,35.9,15.5,51.3,15.7,19.2,0,35.8-9.1,39.6-21.9.9-3,.8-7.5-.1-10.5-2-6.5-7.9-11.9-15.6-14.5-3.1-1-3.6-1.1-11.1-1.1-7.6,0-8,0-13.1,1.3-13,3.4-22,7.8-42.9,21-4.2,2.7-8.1,5.1-8.6,5.3-.8.4-1.3.3-4-1.4-8.2-5-21.6-14.6-21.4-15.1,0-.2,3.8-2.9,8.4-5.9,19-12.9,32.5-24.2,38.9-32.9,3.2-4.2,5.7-9.3,5.9-12,.2-2.1.1-2.2-1.4-3.7-1.9-1.9-3.8-2.4-7.2-1.8-8.6,1.5-22.6,10.4-41.7,26.4-4.1,3.4-5.9,4.6-5.9,4s1.6-3.5,3.6-7.6c6.6-13.6,8.2-19.3,6.1-22-1.6-2-4.7-2.8-8.3-1.9h0ZM-183.3-292c.8,2.5-5.1,18-10.8,28.5-3.2,5.9-8.9,14.4-9.4,14.2-.2,0-3.4-2.4-7.2-5.3-3.7-2.8-8.1-6-9.8-7.2l-3-2.1.8-1.2c1.6-2.3,9.5-10.3,14.1-14.2,7.9-6.8,15.9-11.8,21.2-13.3,2.7-.8,3.7-.6,4,.4ZM-137.1-290.8c.8.7.7,3.6-.4,5.8-4,8.5-21.7,24.1-46.3,40.8l-7,4.8-4.4-3.4-4.4-3.3,1.9-2.3c3.5-4,17.1-17.1,22.3-21.4,5.8-4.9,13.8-10.8,19.6-14.8,8.5-5.7,16.2-8.3,18.6-6.3ZM-244.1-273.8c3.9,2.3,12.7,7.8,16.3,10.1.2.2-.8,1.8-2.2,3.6-5.9,8-7.7,15.7-4.2,18,2.2,1.5,7.2-.3,12-4.2,3-2.5,6.9-6.8,6.5-7.2s-2.1-.3-3.1.2c-.5.2-2.5,2.1-4.5,4-7,6.8-10.8,8-10.8,3.3s3.9-9.9,7.9-14.8l1-1.2,4.9,3.5c9.2,6.7,15.1,11.3,15,11.8,0,.3-2.9,3.6-6.2,7.4-10.1,11.2-21.4,25.6-29.1,36.7-4,5.9-3.2,5.4-7.6,4.7-4.9-.8-24.5-.8-31.5-.2-12,1.2-23.7,3-35.9,5.5-4,.8-6.7,1.2-6.8.9-.1-.2,1.8-2.4,4.2-4.9,7.8-7.9,21.1-22.2,30.5-32.8,16.2-18.2,28.7-33.6,35.5-43.8,1.4-2,2.7-3.7,2.8-3.7s2.6,1.3,5.4,2.9h0ZM-87.2-244.7c7.6,2.1,13,7,15,13.4,2.2,7-.8,14.6-7.7,19.9-11.7,9.1-29.1,11.3-48.5,6.3-9.1-2.3-21.2-7.4-29.8-12.3l-2.3-1.4,2.3-1.5c1.3-.8,3.4-2.1,4.6-2.8,23.7-14.8,35.8-20.3,49.5-22.4,5.1-.7,12.9-.4,16.8.6h0ZM-197.3-240.9c2,1.5,3.6,3,3.6,3.2-.1.4-13.2,8.7-20,12.6-4.3,2.5-5.6,3-4.7,1.7,5.8-7.6,16.7-20.6,17.1-20.5.2,0,1.9,1.4,4,3h0ZM-184.9-231.4c4,3,18.4,12.8,19.3,13.1.7.2,0,1.1-1.8,2l-1.7.8-5.7-1.1c-10.1-1.9-14.1-2.3-27.1-2.5-12.1-.2-12.5-.2-11.7-.9.4-.4,4.3-2.9,8.6-5.5,4.3-2.7,9.5-5.9,11.5-7.1,2-1.2,3.8-2.1,4-2,.2.1,2.2,1.6,4.4,3.3h0Z"/>
    <g>
      <path class="cls-4" d="M-319.7-164v-12.5c0-.8-.3-1-1.7-1h0c0-.1,5-.1,5-.1h0c-1.4.2-1.7.4-1.7,1.2v12.5c0,.6.3.8.9.8h2.2c2,0,3-.7,4.4-3.3h.1l-1.1,3.6h-9.9c1.4-.2,1.7-.4,1.7-1.2Z"/>
      <path class="cls-4" d="M-303.9-170.1c0-4.7,3.3-7.8,7.5-7.8s7.3,3,7.3,7.4-3.4,7.8-7.6,7.8-7.2-3-7.2-7.4ZM-296.3-163c3.1,0,5.4-2.7,5.4-6.9s-2.4-7.7-5.9-7.7-5.4,2.8-5.4,6.9,2.4,7.7,5.8,7.7Z"/>
      <path class="cls-4" d="M-280.3-164v-12.5c0-.8-.3-.9-1.7-1h0c0-.1,4.7-.1,4.7-.1,3.7,0,5.7,1.2,5.7,3.5s-2.1,3.3-3.8,3.7l3.2,4.8c1.2,1.9,2,2.6,3,2.7h0c-.3.2-.9.2-1.3.2-1.2,0-1.9-.3-3-2.1l-2.8-4.5c-.4-.8-.7-.8-1.2-.8h-1.2v6.2c0,.8.3,1,1.9,1h0c0,.1-5.2.1-5.2.1h0c1.4-.2,1.7-.4,1.7-1.2ZM-277.5-170.5c2.5,0,4.2-1.2,4.2-3.3s-1.6-3.5-4.4-3.5h-1v6.9h1.3Z"/>
      <path class="cls-4" d="M-261.5-164v-12.5c0-.8-.3-1-1.7-1h0c0-.1,10.1-.1,10.1-.1l.7,3.4h-.2c-1-2.4-1.8-3-4.1-3h-3.2v6.8h2.8c1.8,0,2.3-.7,2.6-2.5h.1v5.4h-.1c-.3-1.9-.8-2.6-2.6-2.6h-2.8v6.2c0,.6.3.8.9.8h2.8c2,0,3-.6,4.3-3.2h.1l-1.1,3.6h-10.4c1.4-.2,1.7-.4,1.7-1.2Z"/>
      <path class="cls-4" d="M-242.9-165.1v-10.3c0-1.6-.5-2-2-2.1h0c0-.1,3.4-.1,3.4-.1l8.7,12.1v-9.8c0-1.6-.5-2-2.6-2.1h0c0-.1,5-.1,5-.1h0c-1.5.3-2,.7-2,2.3v12.8h-.1l-10-13.6v11.2c0,1.6.5,2,2.6,2.1h0c0,.1-5,.1-5,.1h0c1.5-.3,2-.7,2-2.3Z"/>
      <path class="cls-4" d="M-213.9-164.4l-1.6-4.3h-5.2l-1.3,3.6c-.5,1.4-.2,2,1.6,2.1h0c0,.1-4.3.1-4.3.1h0c1-.3,1.7-.8,2.3-2.4l4-11.1-.4-.9c.5-.1,1.1-.4,1.4-.8h.1c.2.7.3,1,.8,2.4l3.9,10.7c.6,1.6.9,1.9,2.2,2h0c0,.1-5.1.1-5.1.1h0c1.7-.2,1.8-.5,1.5-1.5ZM-215.6-169.1l-2.4-6.9-2.4,6.9h4.9Z"/>
      <path class="cls-4" d="M-192.7-164v-12.5c0-.8-.3-.9-1.7-1h0c0-.1,4.7-.1,4.7-.1,3.7,0,5.7,1.2,5.7,3.5s-2.1,3.3-3.8,3.7l3.2,4.8c1.2,1.9,2,2.6,3,2.7h0c-.3.2-.9.2-1.3.2-1.2,0-1.9-.3-3-2.1l-2.8-4.5c-.4-.8-.7-.8-1.2-.8h-1.2v6.2c0,.8.3,1,1.9,1h0c0,.1-5.2.1-5.2.1h0c1.4-.2,1.7-.4,1.7-1.2ZM-189.8-170.5c2.5,0,4.2-1.2,4.2-3.3s-1.6-3.5-4.4-3.5h-1v6.9h1.3Z"/>
      <path class="cls-4" d="M-165.6-164.4l-1.6-4.3h-5.2l-1.3,3.6c-.5,1.4-.2,2,1.6,2.1h0c0,.1-4.3.1-4.3.1h0c1-.3,1.7-.8,2.3-2.4l4-11.1-.4-.9c.5-.1,1.1-.4,1.4-.8h.1c.2.7.3,1,.8,2.4l3.9,10.7c.6,1.6.9,1.9,2.2,2h0c0,.1-5.1.1-5.1.1h0c1.7-.2,1.8-.5,1.5-1.5ZM-167.2-169.1l-2.4-6.9-2.4,6.9h4.9ZM-171.7-182.1c.5,1.2,1.5,1.8,2.7,1.8s2.2-.6,2.7-1.8h.1c-.4,1.7-1.3,2.8-2.9,2.8s-2.4-1.1-2.9-2.7h.1Z"/>
      <path class="cls-4" d="M-155.1-168.1v-8.4c0-.8-.3-1-1.7-1h0c0-.1,5-.1,5-.1h0c-1.4.2-1.7.4-1.7,1.2v8.3c0,3.5,1.7,5,4.3,5s4.4-1.3,4.4-4.9v-7.2c0-1.6-.5-2-2.4-2.1h0c0-.1,4.8-.1,4.8-.1h0c-1.5.3-2,.7-2,2.3v7.2c0,3.9-2.1,5.5-5.4,5.5s-5.3-1.6-5.3-5.5Z"/>
      <path class="cls-4" d="M-130.5-164v-13.3h-1.5c-2.2,0-3,.5-4,3h-.1l.7-3.5c.4,0,1.2.1,2,.1h7.5c.8,0,1.6,0,2-.1l.7,3.5h-.2c-1-2.6-1.8-3-4-3h-1.5v13.3c0,.8.3,1,1.7,1h0c0,.1-5,.1-5,.1h0c1.4-.2,1.7-.4,1.7-1.2ZM-129-160.2c0-.1,0-.2,0-.3-.2.1-.4.2-.7.2-.4,0-.8-.3-.8-.7s.3-.8.9-.8,1.2.6,1.2,1.3-.7,1.8-2.2,2.2h0c1.1-.5,1.6-1.2,1.6-1.9Z"/>
      <path class="cls-4" d="M-108.6-164.4l-1.6-4.3h-5.2l-1.3,3.6c-.5,1.4-.2,2,1.6,2.1h0c0,.1-4.3.1-4.3.1h0c1-.3,1.7-.8,2.3-2.4l4-11.1-.4-.9c.5-.1,1.1-.4,1.4-.8h.1c.2.7.3,1,.8,2.4l3.9,10.7c.6,1.6.9,1.9,2.2,2h0c0,.1-5.1.1-5.1.1h0c1.7-.2,1.8-.5,1.5-1.5ZM-110.3-169.1l-2.4-6.9-2.4,6.9h4.9ZM-114.7-182.1c.5,1.2,1.5,1.8,2.7,1.8s2.2-.6,2.7-1.8h.1c-.4,1.7-1.3,2.8-2.9,2.8s-2.4-1.1-2.9-2.7h.1Z"/>
    </g>
    <g>
      <path class="cls-4" d="M-301.2-144.3l-1.6-5.9h.5l1.3,5.1h0l1.3-5.1h.6l1.3,5.1h0l1.3-5.1h.5l-1.6,5.9h-.6l-1.4-5h0l-1.4,5h-.6Z"/>
      <path class="cls-4" d="M-287.4-144.3v-5.9h3.4v.5h-2.9v2.2h2.7v.5h-2.7v2.2h2.9v.5h-3.5Z"/>
      <path class="cls-4" d="M-273.6-144.3h-1.7v-5.9h1.8c.6,0,1,.1,1.4.4.4.2.7.6.9,1,.2.4.3,1,.3,1.6s-.1,1.1-.3,1.6c-.2.4-.5.8-.9,1s-.9.4-1.5.4ZM-274.8-144.8h1.2c.5,0,.9,0,1.3-.3.3-.2.6-.5.8-.9s.3-.8.3-1.3c0-.5,0-.9-.3-1.3s-.4-.6-.7-.8-.7-.3-1.2-.3h-1.3v4.9Z"/>
      <path class="cls-4" d="M-260.5-144.3h-1.7v-5.9h1.8c.6,0,1,.1,1.4.4.4.2.7.6.9,1,.2.4.3,1,.3,1.6s-.1,1.1-.3,1.6c-.2.4-.5.8-.9,1s-.9.4-1.5.4ZM-261.7-144.8h1.2c.5,0,.9,0,1.3-.3.3-.2.6-.5.8-.9s.3-.8.3-1.3c0-.5,0-.9-.3-1.3s-.4-.6-.7-.8-.7-.3-1.2-.3h-1.3v4.9Z"/>
      <path class="cls-4" d="M-248.6-150.2v5.9h-.5v-5.9h.5Z"/>
      <path class="cls-4" d="M-235.1-150.2v5.9h-.5l-3.5-4.9h0v4.9h-.5v-5.9h.5l3.5,4.9h0v-4.9h.5Z"/>
      <path class="cls-4" d="M-222.2-148.3c0-.2-.1-.4-.2-.6-.1-.2-.2-.3-.4-.5-.2-.1-.3-.2-.5-.3-.2,0-.4-.1-.7-.1-.4,0-.7,0-1,.3-.3.2-.5.5-.7.9s-.3.8-.3,1.4,0,1,.3,1.4c.2.4.4.7.7.9.3.2.7.3,1.1.3s.7,0,1-.2c.3-.2.5-.4.7-.7.2-.3.2-.7.2-1.1h.2c0,0-1.9,0-1.9,0v-.5h2.2v.5c0,.5-.1.9-.3,1.3-.2.4-.5.6-.8.8s-.8.3-1.2.3-1-.1-1.3-.4c-.4-.2-.7-.6-.9-1.1-.2-.5-.3-1-.3-1.6s0-.9.2-1.3c.1-.4.3-.7.5-1,.2-.3.5-.5.8-.6.3-.1.7-.2,1-.2s.6,0,.9.2c.3.1.5.2.7.4s.4.4.5.6c.1.2.2.5.3.7h-.6Z"/>
      <path class="cls-4" d="M-203.4-144.3v-5.9h1.9c.4,0,.8,0,1,.2.3.2.5.4.6.7.1.3.2.6.2.9s0,.7-.2.9c-.1.3-.4.5-.6.7-.3.2-.6.2-1,.2h-1.5v-.5h1.5c.3,0,.6,0,.8-.2.2-.1.4-.3.5-.5.1-.2.2-.4.2-.7s0-.5-.2-.7c-.1-.2-.3-.4-.5-.5-.2-.1-.5-.2-.8-.2h-1.3v5.4h-.5Z"/>
      <path class="cls-4" d="M-191.1-144.3v-5.9h.5v5.4h2.8v.5h-3.3Z"/>
      <path class="cls-4" d="M-179.2-144.3h-.6l2.1-5.9h.6l2.1,5.9h-.6l-1.8-5.2h0l-1.8,5.2ZM-178.8-146.5h2.9v.5h-2.9v-.5Z"/>
      <path class="cls-4" d="M-162-150.2v5.9h-.5l-3.5-4.9h0v4.9h-.5v-5.9h.5l3.5,4.9h0v-4.9h.5Z"/>
      <path class="cls-4" d="M-148.6-150.2v5.9h-.5l-3.5-4.9h0v4.9h-.5v-5.9h.5l3.5,4.9h0v-4.9h.5Z"/>
      <path class="cls-4" d="M-139.7-144.3v-5.9h3.4v.5h-2.9v2.2h2.7v.5h-2.7v2.2h2.9v.5h-3.5Z"/>
      <path class="cls-4" d="M-127.6-144.3v-5.9h1.9c.4,0,.8,0,1,.2.3.2.5.4.6.6.1.3.2.6.2.9s0,.6-.2.9c-.1.3-.4.5-.6.6-.3.1-.6.2-1,.2h-1.6v-.5h1.6c.3,0,.6,0,.8-.2.2-.1.4-.2.5-.4.1-.2.2-.4.2-.7s0-.5-.2-.7c-.1-.2-.3-.3-.5-.4-.2-.1-.5-.2-.8-.2h-1.3v5.4h-.5ZM-125-146.9l1.4,2.7h-.6l-1.4-2.7h.6Z"/>
    </g>
  </g>
</svg>